<?xml version="1.0" encoding="UTF-8"?>
<svg width="387px" height="573px" viewBox="0 0 387 573" version="1.1" xmlns="http://www.w3.org/2000/svg" xmlns:xlink="http://www.w3.org/1999/xlink">
    <title>Leaf</title>
    <g id="Leaf" stroke="none" stroke-width="1" fill="none" fill-rule="evenodd">
        <g>
            <path d="M171.036166,358.503488 C43.955704,495.499823 -0.165286196,565.166489 38.6731959,567.503488" id="Path-2" stroke="#6E5555" stroke-width="10"></path>
            <path d="M193.401957,30.5914808 C265.746538,72.5565823 314.400243,150.848194 314.400243,240.503488 C314.400243,330.158782 265.746538,408.450394 193.401957,450.415495 C121.054398,408.451118 72.4002428,330.159197 72.4002428,240.503488 C72.4002428,152.110314 119.693748,74.7631296 190.357398,32.3852952 Z" id="Combined-Shape" fill="#6DD400" transform="translate(193.400243, 240.503488) rotate(23.000000) translate(-193.400243, -240.503488) "></path>
            <ellipse id="Eye-Copy" fill-opacity="0.85" fill="#000000" cx="140.050243" cy="196.003488" rx="41.65" ry="45"></ellipse>
            <ellipse id="Eye-Copy-2" fill-opacity="0.85" fill="#000000" cx="268.050243" cy="195.003488" rx="41.65" ry="45"></ellipse>
            <path d="M252.156061,164.54707 C252.674995,164.562767 252.786196,164.664957 252.842561,164.798049 L254.722461,169.236973 C254.9153,169.692315 255.320167,170.023363 255.80474,170.121919 L260.643509,171.106064 C260.77881,171.133582 260.890148,171.213337 260.960781,171.320038 C261.031414,171.426739 261.061342,171.560385 261.033824,171.695686 C261.014851,171.788971 260.970212,171.87282 260.907302,171.939408 C260.844392,172.005995 260.76321,172.05532 260.671152,172.079556 L255.982776,173.313865 C255.490377,173.443499 255.097362,173.81407 254.939031,174.298005 L253.472833,178.779394 C253.429899,178.91062 253.33784,179.01202 253.223707,179.069881 C253.109575,179.127742 252.97337,179.142062 252.842143,179.099128 C252.704773,179.054184 252.593573,178.951995 252.537208,178.818903 L250.657308,174.379979 C250.464469,173.924636 250.059602,173.593589 249.575029,173.495033 L244.73626,172.510887 C244.600959,172.483369 244.489621,172.403614 244.418988,172.296913 C244.348355,172.190213 244.318426,172.056566 244.345945,171.921265 C244.364918,171.827981 244.409557,171.744131 244.472467,171.677544 C244.535377,171.610956 244.616558,171.561631 244.708616,171.537395 L249.396993,170.303086 C249.889391,170.173452 250.282407,169.802881 250.440738,169.318947 L251.906935,164.837558 C251.949869,164.706331 252.041929,164.604931 252.156061,164.54707 Z" id="Star-Copy-2" stroke="#979797" fill="#FFFFFF"></path>
            <path d="M117.823134,166.8802 C118.342069,166.895897 118.453269,166.998087 118.509634,167.131179 L120.389534,171.570103 C120.582373,172.025446 120.98724,172.356493 121.471813,172.455049 L126.310582,173.439194 C126.445883,173.466713 126.557221,173.546468 126.627854,173.653168 C126.698487,173.759869 126.728415,173.893515 126.700897,174.028816 C126.681924,174.122101 126.637285,174.205951 126.574375,174.272538 C126.511465,174.339125 126.430283,174.388451 126.338226,174.412687 L121.649849,175.646996 C121.157451,175.776629 120.764435,176.147201 120.606104,176.631135 L119.139906,181.112524 C119.096972,181.24375 119.004913,181.345151 118.890781,181.403011 C118.776648,181.460872 118.640443,181.475192 118.509216,181.432259 C118.371846,181.387315 118.260646,181.285125 118.204281,181.152033 L116.324381,176.713109 C116.131542,176.257766 115.726675,175.926719 115.242102,175.828163 L110.403333,174.844018 C110.268032,174.816499 110.156694,174.736744 110.086061,174.630043 C110.015428,174.523343 109.985499,174.389697 110.013018,174.254396 C110.031991,174.161111 110.07663,174.077261 110.13954,174.010674 C110.20245,173.944086 110.283631,173.894761 110.375689,173.870525 L115.064066,172.636216 C115.556464,172.506582 115.94948,172.136011 116.107811,171.652077 L117.574009,167.170688 C117.616943,167.039462 117.709002,166.938061 117.823134,166.8802 Z" id="Star-Copy" stroke="#979797" fill="#FFFFFF"></path>
            <circle id="Oval" stroke="#979797" fill="#FFFFFF" cx="286.481838" cy="179.184836" r="7.36359077"></circle>
            <circle id="Oval" stroke="#979797" fill="#FFFFFF" cx="152.562079" cy="181.457654" r="7.36359077"></circle>
            <path d="M278.17612,195.503488 C282.456327,195.503488 286.331327,197.238385 289.136275,200.043333 C291.941223,202.848281 293.67612,206.723281 293.67612,211.003488 C293.67612,215.283695 291.941223,219.158695 289.136275,221.963643 C286.331327,224.768591 282.456327,226.503488 278.17612,226.503488 C273.895913,226.503488 270.020913,224.768591 267.215965,221.963643 C264.411017,219.158695 262.67612,215.283695 262.67612,211.003488 C262.67612,206.723281 264.411017,202.848281 267.215965,200.043333 C270.020913,197.238385 273.895913,195.503488 278.17612,195.503488 Z M137.478064,195.503488 C141.758271,195.503488 145.633271,197.238385 148.438219,200.043333 C151.243167,202.848281 152.978064,206.723281 152.978064,211.003488 C152.978064,215.283695 151.243167,219.158695 148.438219,221.963643 C145.633271,224.768591 141.758271,226.503488 137.478064,226.503488 C133.197857,226.503488 129.322857,224.768591 126.517909,221.963643 C123.712961,219.158695 121.978064,215.283695 121.978064,211.003488 C121.978064,206.723281 123.712961,202.848281 126.517909,200.043333 C129.322857,197.238385 133.197857,195.503488 137.478064,195.503488 Z" id="Oval-3" stroke="#979797" fill="#FFFFFF"></path>
            <path d="M247.349243,289.003125 L247.362178,304.165057 C247.383184,331.116763 225.551538,352.982467 198.599831,353.003473 L198.561797,353.003488 C166.440057,353.003488 140.400243,326.963673 140.400243,294.841934 L140.400243,289.003488 L247.349243,289.003125 Z" id="Combined-Shape-Copy-2" fill-opacity="0.85" fill="#000000"></path>
            <path d="M189.737445,322.15915 C190.291499,322.627026 190.805185,323.140712 191.273062,323.694767 C197.664571,331.263518 206.438692,336.435277 216.156028,338.361614 L221.053126,339.3324 C225.415587,340.197202 228.251001,344.434737 227.386199,348.797198 C227.055357,350.466115 226.204412,351.987359 224.955438,353.142695 L223.554753,354.438368 C222.361767,355.541915 221.274319,356.735228 220.298497,358.00278 L219.295907,358.003488 C197.044867,358.003488 177.536155,346.262188 166.627374,328.637192 C168.380914,327.130709 170.020399,325.479368 171.527424,323.694767 C176.131934,318.242159 184.284837,317.55464 189.737445,322.15915 Z" id="Combined-Shape-Copy" fill="#E02020" transform="translate(197.084411, 338.556522) rotate(-27.000000) translate(-197.084411, -338.556522) "></path>
            <path d="M217.535209,289.503488 C219.746687,289.503488 220.834951,289.775502 221.839192,290.312576 C222.810028,290.831785 223.571946,291.593703 224.091155,292.564539 C224.628229,293.56878 224.900243,294.657044 224.900243,296.868522 L224.900243,299.138454 C224.900243,301.349933 224.628229,302.438197 224.091155,303.442437 C223.571946,304.413273 222.810028,305.175191 221.839192,305.6944 C220.834951,306.231474 219.746687,306.503488 217.535209,306.503488 L179.265277,306.503488 C177.053798,306.503488 175.965534,306.231474 174.961294,305.6944 C173.990457,305.175191 173.22854,304.413273 172.709331,303.442437 C172.172257,302.438197 171.900243,301.349933 171.900243,299.138454 L171.900243,296.868522 C171.900243,294.657044 172.172257,293.56878 172.709331,292.564539 C173.22854,291.593703 173.990457,290.831785 174.961294,290.312576 C175.965534,289.775502 177.053798,289.503488 179.265277,289.503488 Z" id="Rectangle" stroke="#979797" fill="#FFFFFF"></path>
        </g>
    </g>
</svg>