<?xml version="1.0" encoding="UTF-8"?>
<svg width="387px" height="573px" viewBox="0 0 387 573" version="1.1" xmlns="http://www.w3.org/2000/svg" xmlns:xlink="http://www.w3.org/1999/xlink">
    <title>Leaf Copy 4</title>
    <g id="Leaf" stroke="none" stroke-width="1" fill="none" fill-rule="evenodd">
        <g id="Leaf-Copy-4" transform="translate(-0.000000, 0.000000)">
            <path d="M171.036166,358.503488 C43.955704,495.499823 -0.165286196,565.166489 38.6731959,567.503488" id="Path-2" stroke="#6E5555" stroke-width="10"></path>
            <path d="M193.401957,30.5914808 C265.746538,72.5565823 314.400243,150.848194 314.400243,240.503488 C314.400243,330.158782 265.746538,408.450394 193.401957,450.415495 C121.054398,408.451118 72.4002428,330.159197 72.4002428,240.503488 C72.4002428,152.110314 119.693748,74.7631296 190.357398,32.3852952 Z" id="Combined-Shape" fill="#6DD400" transform="translate(193.400243, 240.503488) rotate(23.000000) translate(-193.400243, -240.503488) "></path>
            <ellipse id="Eye-Copy-3" fill-opacity="0.85" fill="#000000" cx="200.050243" cy="316.003488" rx="41.65" ry="45"></ellipse>
            <path d="M192.737445,325.15915 C193.291499,325.627026 193.805185,326.140712 194.273062,326.694767 C200.664571,334.263518 209.438692,339.435277 219.156028,341.361614 L224.053126,342.3324 C228.415587,343.197202 231.251001,347.434737 230.386199,351.797198 C230.055357,353.466115 229.204412,354.987359 227.955438,356.142695 L226.554753,357.438368 C225.361767,358.541915 224.274319,359.735228 223.298497,361.00278 L222.295907,361.003488 C200.044867,361.003488 180.536155,349.262188 169.627374,331.637192 C171.380914,330.130709 173.020399,328.479368 174.527424,326.694767 C179.131934,321.242159 187.284837,320.55464 192.737445,325.15915 Z" id="Combined-Shape-Copy" fill="#E02020" transform="translate(200.084411, 341.556522) rotate(-27.000000) translate(-200.084411, -341.556522) "></path>
            <path d="M180.265277,281.003488 L218.535209,281.003488 C220.871533,281.003488 222.015732,281.305171 223.074991,281.871669 C224.134251,282.438167 224.965563,283.26948 225.532061,284.32874 C226.09856,285.387999 226.400243,286.532198 226.400243,288.868522 L226.400243,291.138454 C226.400243,293.474778 226.09856,294.618977 225.532061,295.678237 C224.965563,296.737496 224.134251,297.568809 223.074991,298.135307 C222.015732,298.701805 220.871533,299.003488 218.535209,299.003488 L180.265277,299.003488 C177.928952,299.003488 176.784753,298.701805 175.725494,298.135307 C174.666235,297.568809 173.834922,296.737496 173.268424,295.678237 C172.701926,294.618977 172.400243,293.474778 172.400243,291.138454 L172.400243,288.868522 C172.400243,286.532198 172.701926,285.387999 173.268424,284.32874 C173.834922,283.26948 174.666235,282.438167 175.725494,281.871669 C176.784753,281.305171 177.928952,281.003488 180.265277,281.003488 Z" id="Rectangle" fill="#FFFFFF"></path>
            <path d="M120.265277,191.003488 L158.535209,191.003488 C160.871533,191.003488 162.015732,191.305171 163.074991,191.871669 C164.134251,192.438167 164.965563,193.26948 165.532061,194.32874 C166.09856,195.387999 166.400243,196.532198 166.400243,198.868522 L166.400243,201.138454 C166.400243,203.474778 166.09856,204.618977 165.532061,205.678237 C164.965563,206.737496 164.134251,207.568809 163.074991,208.135307 C162.015732,208.701805 160.871533,209.003488 158.535209,209.003488 L120.265277,209.003488 C117.928952,209.003488 116.784753,208.701805 115.725494,208.135307 C114.666235,207.568809 113.834922,206.737496 113.268424,205.678237 C112.701926,204.618977 112.400243,203.474778 112.400243,201.138454 L112.400243,198.868522 C112.400243,196.532198 112.701926,195.387999 113.268424,194.32874 C113.834922,193.26948 114.666235,192.438167 115.725494,191.871669 C116.784753,191.305171 117.928952,191.003488 120.265277,191.003488 Z" id="Rectangle-Copy" fill="#000000"></path>
            <path d="M250.265277,191.003488 L288.535209,191.003488 C290.871533,191.003488 292.015732,191.305171 293.074991,191.871669 C294.134251,192.438167 294.965563,193.26948 295.532061,194.32874 C296.09856,195.387999 296.400243,196.532198 296.400243,198.868522 L296.400243,201.138454 C296.400243,203.474778 296.09856,204.618977 295.532061,205.678237 C294.965563,206.737496 294.134251,207.568809 293.074991,208.135307 C292.015732,208.701805 290.871533,209.003488 288.535209,209.003488 L250.265277,209.003488 C247.928952,209.003488 246.784753,208.701805 245.725494,208.135307 C244.666235,207.568809 243.834922,206.737496 243.268424,205.678237 C242.701926,204.618977 242.400243,203.474778 242.400243,201.138454 L242.400243,198.868522 C242.400243,196.532198 242.701926,195.387999 243.268424,194.32874 C243.834922,193.26948 244.666235,192.438167 245.725494,191.871669 C246.784753,191.305171 247.928952,191.003488 250.265277,191.003488 Z" id="Rectangle-Copy-2" fill="#000000"></path>
        </g>
    </g>
</svg>