<?xml version="1.0" encoding="UTF-8"?>
<svg width="387px" height="573px" viewBox="0 0 387 573" version="1.1" xmlns="http://www.w3.org/2000/svg" xmlns:xlink="http://www.w3.org/1999/xlink">
    <title>Leaf Copy 2</title>
    <g id="Leaf" stroke="none" stroke-width="1" fill="none" fill-rule="evenodd">
        <g id="Leaf-Copy-2">
            <path d="M171.036166,358.503488 C43.955704,495.499823 -0.165286196,565.166489 38.6731959,567.503488" id="Path-2" stroke="#6E5555" stroke-width="10"></path>
            <path d="M193.401957,30.5914808 C265.746538,72.5565823 314.400243,150.848194 314.400243,240.503488 C314.400243,330.158782 265.746538,408.450394 193.401957,450.415495 C121.054398,408.451118 72.4002428,330.159197 72.4002428,240.503488 C72.4002428,152.110314 119.693748,74.7631296 190.357398,32.3852952 Z" id="Combined-Shape" fill="#6DD400" transform="translate(193.400243, 240.503488) rotate(23.000000) translate(-193.400243, -240.503488) "></path>
            <ellipse id="Eye-Copy" fill-opacity="0.85" fill="#000000" cx="140.050243" cy="196.003488" rx="41.65" ry="45"></ellipse>
            <ellipse id="Eye-Copy-3" fill-opacity="0.85" fill="#000000" cx="200.050243" cy="316.003488" rx="41.65" ry="45"></ellipse>
            <ellipse id="Eye-Copy-2" fill-opacity="0.85" fill="#000000" cx="268.050243" cy="195.003488" rx="41.65" ry="45"></ellipse>
            <path d="M261.17612,180.503488 C265.456327,180.503488 269.331327,182.238385 272.136275,185.043333 C274.941223,187.848281 276.67612,191.723281 276.67612,196.003488 C276.67612,200.283695 274.941223,204.158695 272.136275,206.963643 C269.331327,209.768591 265.456327,211.503488 261.17612,211.503488 C256.895913,211.503488 253.020913,209.768591 250.215965,206.963643 C247.411017,204.158695 245.67612,200.283695 245.67612,196.003488 C245.67612,191.723281 247.411017,187.848281 250.215965,185.043333 C253.020913,182.238385 256.895913,180.503488 261.17612,180.503488 Z M139.478064,180.503488 C143.758271,180.503488 147.633271,182.238385 150.438219,185.043333 C153.243167,187.848281 154.978064,191.723281 154.978064,196.003488 C154.978064,200.283695 153.243167,204.158695 150.438219,206.963643 C147.633271,209.768591 143.758271,211.503488 139.478064,211.503488 C135.197857,211.503488 131.322857,209.768591 128.517909,206.963643 C125.712961,204.158695 123.978064,200.283695 123.978064,196.003488 C123.978064,191.723281 125.712961,187.848281 128.517909,185.043333 C131.322857,182.238385 135.197857,180.503488 139.478064,180.503488 Z" id="Oval-3" stroke="#979797" fill="#FFFFFF"></path>
            <path d="M192.737445,325.15915 C193.291499,325.627026 193.805185,326.140712 194.273062,326.694767 C200.664571,334.263518 209.438692,339.435277 219.156028,341.361614 L224.053126,342.3324 C228.415587,343.197202 231.251001,347.434737 230.386199,351.797198 C230.055357,353.466115 229.204412,354.987359 227.955438,356.142695 L226.554753,357.438368 C225.361767,358.541915 224.274319,359.735228 223.298497,361.00278 L222.295907,361.003488 C200.044867,361.003488 180.536155,349.262188 169.627374,331.637192 C171.380914,330.130709 173.020399,328.479368 174.527424,326.694767 C179.131934,321.242159 187.284837,320.55464 192.737445,325.15915 Z" id="Combined-Shape-Copy" fill="#E02020" transform="translate(200.084411, 341.556522) rotate(-27.000000) translate(-200.084411, -341.556522) "></path>
            <path d="M180.265277,281.003488 L218.535209,281.003488 C220.871533,281.003488 222.015732,281.305171 223.074991,281.871669 C224.134251,282.438167 224.965563,283.26948 225.532061,284.32874 C226.09856,285.387999 226.400243,286.532198 226.400243,288.868522 L226.400243,291.138454 C226.400243,293.474778 226.09856,294.618977 225.532061,295.678237 C224.965563,296.737496 224.134251,297.568809 223.074991,298.135307 C222.015732,298.701805 220.871533,299.003488 218.535209,299.003488 L180.265277,299.003488 C177.928952,299.003488 176.784753,298.701805 175.725494,298.135307 C174.666235,297.568809 173.834922,296.737496 173.268424,295.678237 C172.701926,294.618977 172.400243,293.474778 172.400243,291.138454 L172.400243,288.868522 C172.400243,286.532198 172.701926,285.387999 173.268424,284.32874 C173.834922,283.26948 174.666235,282.438167 175.725494,281.871669 C176.784753,281.305171 177.928952,281.003488 180.265277,281.003488 Z" id="Rectangle" fill="#FFFFFF"></path>
        </g>
    </g>
</svg>