<?xml version="1.0" encoding="UTF-8"?>
<svg width="2715px" height="1028px" viewBox="0 0 2715 1028" version="1.1" xmlns="http://www.w3.org/2000/svg" xmlns:xlink="http://www.w3.org/1999/xlink">
    <title>Group 2</title>
    <defs>
        <rect id="path-1" x="0" y="0" width="469" height="613"></rect>
    </defs>
    <g id="AllTogether" stroke="none" stroke-width="1" fill="none" fill-rule="evenodd">
        <g id="Group-2">
            <g id="Group">
                <path d="M545.791494,-11.9901076 C546.343779,-11.9901076 546.791494,-11.5423923 546.791494,-10.9901076 L546.791494,84.0098924 C546.791494,84.5621772 546.343779,85.0098924 545.791494,85.0098924 L476.791494,85.0098924 C476.239209,85.0098924 475.791494,84.5621772 475.791494,84.0098924 L475.791494,-10.9901076 C475.791494,-11.5423923 476.239209,-11.9901076 476.791494,-11.9901076 L478.722494,-11.9908463 L513.64653,53.0722051 L545.697494,-11.9908463 L545.791494,-11.9901076 Z" id="Combined-Shape" fill="#E02020" transform="translate(511.291494, 36.509523) rotate(89.000000) translate(-511.291494, -36.509523) "></path>
                <mask id="mask-2" fill="white">
                    <use xlink:href="#path-1"></use>
                </mask>
                <use id="Rectangle" fill="#7D82B8" xlink:href="#path-1"></use>
                <rect id="Rectangle" fill-opacity="0.85" fill="#000000" mask="url(#mask-2)" x="109" y="345" width="199" height="84"></rect>
                <polygon id="Rectangle" fill-opacity="0.85" fill="#000000" mask="url(#mask-2)" points="59 100 153 100 153 200 59 200"></polygon>
                <rect id="Rectangle" fill="#FFFFFF" mask="url(#mask-2)" x="86" y="132" width="39" height="35"></rect>
                <polygon id="Rectangle-Copy" fill-opacity="0.85" fill="#000000" mask="url(#mask-2)" points="265 100 359 100 359 200 265 200"></polygon>
                <rect id="Rectangle-Copy-2" fill="#FFFFFF" mask="url(#mask-2)" x="293" y="132" width="39" height="35"></rect>
                <polygon id="Triangle" fill="#F7A9A8" mask="url(#mask-2)" transform="translate(151.000000, 539.500000) rotate(90.000000) translate(-151.000000, -539.500000) " points="151 479 211.5 600 90.5 600"></polygon>
                <polygon id="Triangle-Copy-3" fill="#F7A9A8" mask="url(#mask-2)" points="209 232 238.5 291 179.5 291"></polygon>
                <polygon id="Triangle-Copy-2" fill="#F7A9A8" mask="url(#mask-2)" transform="translate(271.590648, 538.621824) rotate(269.000000) translate(-271.590648, -538.621824) " points="271.590648 478.121824 332.090648 599.121824 211.090648 599.121824"></polygon>
                <rect id="Rectangle" fill="#000000" mask="url(#mask-2)" x="425" y="340" width="19" height="271"></rect>
                <polygon id="Triangle" fill="#D8D8D8" mask="url(#mask-2)" points="434.5 293 444 340 425 340"></polygon>
                <polygon id="Triangle" fill="#000000" mask="url(#mask-2)" points="434.5 293 437 304 432 304"></polygon>
                <rect id="Rectangle" stroke="#979797" fill="#FFFFFF" mask="url(#mask-2)" x="153.5" y="346.5" width="111" height="32"></rect>
                <rect id="Rectangle" fill="#E02020" mask="url(#mask-2)" x="181" y="418" width="54" height="11"></rect>
                <g id="moustache" mask="url(#mask-2)" fill="#000000" fill-rule="nonzero">
                    <g transform="translate(65.000000, 317.000000)" id="Path">
                        <path d="M205.034949,74.0661652 C237.704293,86.3401973 249.362507,34.3793607 287,71.224485 C287,-0.00174594969 263.551842,20.4426924 230.877793,8.16405473 C200.499631,-3.25332817 168.935888,-2.25390417 143.497648,8.44039316 C118.054702,-2.25850981 86.4956641,-3.25793381 56.1127977,8.16405473 C23.4434536,20.4380868 0,-0.00174594969 0,71.2198794 C37.1717293,34.8307135 49.2862974,86.3401973 81.9509368,74.0615596 C109.797977,63.5975443 131.176073,44.7006011 143.492943,22.6718224 C155.809813,44.7052068 177.192613,63.5929386 205.034949,74.0661652 Z"></path>
                    </g>
                </g>
            </g>
            <g id="Leaf" transform="translate(1265.000000, 59.000000)">
                <path d="M171.036166,358.503488 C43.955704,495.499823 -0.165286196,565.166489 38.6731959,567.503488" id="Path-2" stroke="#6E5555" stroke-width="10"></path>
                <path d="M193.401957,30.5914808 C265.746538,72.5565823 314.400243,150.848194 314.400243,240.503488 C314.400243,330.158782 265.746538,408.450394 193.401957,450.415495 C121.054398,408.451118 72.4002428,330.159197 72.4002428,240.503488 C72.4002428,152.110314 119.693748,74.7631296 190.357398,32.3852952 Z" id="Combined-Shape" fill="#6DD400" transform="translate(193.400243, 240.503488) rotate(23.000000) translate(-193.400243, -240.503488) "></path>
                <ellipse id="Eye-Copy" fill-opacity="0.85" fill="#000000" cx="140.050243" cy="196.003488" rx="41.65" ry="45"></ellipse>
                <ellipse id="Eye-Copy-2" fill-opacity="0.85" fill="#000000" cx="268.050243" cy="195.003488" rx="41.65" ry="45"></ellipse>
                <path d="M252.156061,164.54707 C252.674995,164.562767 252.786196,164.664957 252.842561,164.798049 L254.722461,169.236973 C254.9153,169.692315 255.320167,170.023363 255.80474,170.121919 L260.643509,171.106064 C260.77881,171.133582 260.890148,171.213337 260.960781,171.320038 C261.031414,171.426739 261.061342,171.560385 261.033824,171.695686 C261.014851,171.788971 260.970212,171.87282 260.907302,171.939408 C260.844392,172.005995 260.76321,172.05532 260.671152,172.079556 L255.982776,173.313865 C255.490377,173.443499 255.097362,173.81407 254.939031,174.298005 L253.472833,178.779394 C253.429899,178.91062 253.33784,179.01202 253.223707,179.069881 C253.109575,179.127742 252.97337,179.142062 252.842143,179.099128 C252.704773,179.054184 252.593573,178.951995 252.537208,178.818903 L250.657308,174.379979 C250.464469,173.924636 250.059602,173.593589 249.575029,173.495033 L244.73626,172.510887 C244.600959,172.483369 244.489621,172.403614 244.418988,172.296913 C244.348355,172.190213 244.318426,172.056566 244.345945,171.921265 C244.364918,171.827981 244.409557,171.744131 244.472467,171.677544 C244.535377,171.610956 244.616558,171.561631 244.708616,171.537395 L249.396993,170.303086 C249.889391,170.173452 250.282407,169.802881 250.440738,169.318947 L251.906935,164.837558 C251.949869,164.706331 252.041929,164.604931 252.156061,164.54707 Z" id="Star-Copy-2" stroke="#979797" fill="#FFFFFF"></path>
                <path d="M117.823134,166.8802 C118.342069,166.895897 118.453269,166.998087 118.509634,167.131179 L120.389534,171.570103 C120.582373,172.025446 120.98724,172.356493 121.471813,172.455049 L126.310582,173.439194 C126.445883,173.466713 126.557221,173.546468 126.627854,173.653168 C126.698487,173.759869 126.728415,173.893515 126.700897,174.028816 C126.681924,174.122101 126.637285,174.205951 126.574375,174.272538 C126.511465,174.339125 126.430283,174.388451 126.338226,174.412687 L121.649849,175.646996 C121.157451,175.776629 120.764435,176.147201 120.606104,176.631135 L119.139906,181.112524 C119.096972,181.24375 119.004913,181.345151 118.890781,181.403011 C118.776648,181.460872 118.640443,181.475192 118.509216,181.432259 C118.371846,181.387315 118.260646,181.285125 118.204281,181.152033 L116.324381,176.713109 C116.131542,176.257766 115.726675,175.926719 115.242102,175.828163 L110.403333,174.844018 C110.268032,174.816499 110.156694,174.736744 110.086061,174.630043 C110.015428,174.523343 109.985499,174.389697 110.013018,174.254396 C110.031991,174.161111 110.07663,174.077261 110.13954,174.010674 C110.20245,173.944086 110.283631,173.894761 110.375689,173.870525 L115.064066,172.636216 C115.556464,172.506582 115.94948,172.136011 116.107811,171.652077 L117.574009,167.170688 C117.616943,167.039462 117.709002,166.938061 117.823134,166.8802 Z" id="Star-Copy" stroke="#979797" fill="#FFFFFF"></path>
                <circle id="Oval" stroke="#979797" fill="#FFFFFF" cx="286.481838" cy="179.184836" r="7.36359077"></circle>
                <circle id="Oval" stroke="#979797" fill="#FFFFFF" cx="152.562079" cy="181.457654" r="7.36359077"></circle>
                <path d="M278.17612,195.503488 C282.456327,195.503488 286.331327,197.238385 289.136275,200.043333 C291.941223,202.848281 293.67612,206.723281 293.67612,211.003488 C293.67612,215.283695 291.941223,219.158695 289.136275,221.963643 C286.331327,224.768591 282.456327,226.503488 278.17612,226.503488 C273.895913,226.503488 270.020913,224.768591 267.215965,221.963643 C264.411017,219.158695 262.67612,215.283695 262.67612,211.003488 C262.67612,206.723281 264.411017,202.848281 267.215965,200.043333 C270.020913,197.238385 273.895913,195.503488 278.17612,195.503488 Z M137.478064,195.503488 C141.758271,195.503488 145.633271,197.238385 148.438219,200.043333 C151.243167,202.848281 152.978064,206.723281 152.978064,211.003488 C152.978064,215.283695 151.243167,219.158695 148.438219,221.963643 C145.633271,224.768591 141.758271,226.503488 137.478064,226.503488 C133.197857,226.503488 129.322857,224.768591 126.517909,221.963643 C123.712961,219.158695 121.978064,215.283695 121.978064,211.003488 C121.978064,206.723281 123.712961,202.848281 126.517909,200.043333 C129.322857,197.238385 133.197857,195.503488 137.478064,195.503488 Z" id="Oval-3" stroke="#979797" fill="#FFFFFF"></path>
                <path d="M247.349243,289.003125 L247.362178,304.165057 C247.383184,331.116763 225.551538,352.982467 198.599831,353.003473 L198.561797,353.003488 C166.440057,353.003488 140.400243,326.963673 140.400243,294.841934 L140.400243,289.003488 L247.349243,289.003125 Z" id="Combined-Shape-Copy-2" fill-opacity="0.85" fill="#000000"></path>
                <path d="M189.737445,322.15915 C190.291499,322.627026 190.805185,323.140712 191.273062,323.694767 C197.664571,331.263518 206.438692,336.435277 216.156028,338.361614 L221.053126,339.3324 C225.415587,340.197202 228.251001,344.434737 227.386199,348.797198 C227.055357,350.466115 226.204412,351.987359 224.955438,353.142695 L223.554753,354.438368 C222.361767,355.541915 221.274319,356.735228 220.298497,358.00278 L219.295907,358.003488 C197.044867,358.003488 177.536155,346.262188 166.627374,328.637192 C168.380914,327.130709 170.020399,325.479368 171.527424,323.694767 C176.131934,318.242159 184.284837,317.55464 189.737445,322.15915 Z" id="Combined-Shape-Copy" fill="#E02020" transform="translate(197.084411, 338.556522) rotate(-27.000000) translate(-197.084411, -338.556522) "></path>
                <path d="M217.535209,289.503488 C219.746687,289.503488 220.834951,289.775502 221.839192,290.312576 C222.810028,290.831785 223.571946,291.593703 224.091155,292.564539 C224.628229,293.56878 224.900243,294.657044 224.900243,296.868522 L224.900243,299.138454 C224.900243,301.349933 224.628229,302.438197 224.091155,303.442437 C223.571946,304.413273 222.810028,305.175191 221.839192,305.6944 C220.834951,306.231474 219.746687,306.503488 217.535209,306.503488 L179.265277,306.503488 C177.053798,306.503488 175.965534,306.231474 174.961294,305.6944 C173.990457,305.175191 173.22854,304.413273 172.709331,303.442437 C172.172257,302.438197 171.900243,301.349933 171.900243,299.138454 L171.900243,296.868522 C171.900243,294.657044 172.172257,293.56878 172.709331,292.564539 C173.22854,291.593703 173.990457,290.831785 174.961294,290.312576 C175.965534,289.775502 177.053798,289.503488 179.265277,289.503488 Z" id="Rectangle" stroke="#979797" fill="#FFFFFF"></path>
            </g>
            <g id="Group" transform="translate(1703.000000, 80.000000)">
                <g id="Flower2" transform="translate(483.000000, 5.000000)">
                    <path d="M293.529052,20.0294774 C340.860931,47.4461802 372.69949,98.6444153 372.69949,157.278944 C372.69949,215.930056 340.84292,267.140666 293.48889,294.551667 C246.157087,267.136264 214.318528,215.938029 214.318528,157.3035 C214.318528,98.6536214 246.173759,47.4439302 293.526142,20.0325059 Z" id="Combined-Shape-Copy-3" fill="#32C5FF" transform="translate(293.509009, 157.291154) rotate(23.000000) translate(-293.509009, -157.291154) "></path>
                    <path d="M347.160969,30.9504107 C380.016741,74.6815226 389.319081,134.249335 366.409002,188.222101 C343.492106,242.210923 294.158134,276.903239 239.857964,283.632332 C207.001223,239.900911 197.698883,180.333099 220.608963,126.360333 C243.525297,72.3728347 292.857412,37.6808959 347.156007,30.9505969 Z" id="Combined-Shape-Copy-4" fill="#32C5FF"></path>
                    <path d="M425.7187,93.823726 C458.574473,137.554838 467.876813,197.12265 444.966733,251.095416 C422.049838,305.084238 372.715865,339.776554 318.415695,346.505647 C285.558955,302.774226 276.256615,243.206414 299.166694,189.233648 C322.083028,135.24615 371.415143,100.554211 425.713738,93.8239121 Z" id="Combined-Shape-Copy-4" fill="#32C5FF" transform="translate(372.066740, 220.164470) rotate(51.000000) translate(-372.066740, -220.164470) "></path>
                    <path d="M425.542307,194.443504 C458.39808,238.174616 467.70042,297.742429 444.79034,351.715194 C421.873445,405.704016 372.539472,440.396333 318.239302,447.125426 C285.382562,403.394005 276.080222,343.826192 298.990301,289.853427 C321.906635,235.865928 371.23875,201.17399 425.537345,194.443691 Z" id="Combined-Shape-Copy-4" fill="#32C5FF" transform="translate(371.890347, 320.784248) rotate(103.000000) translate(-371.890347, -320.784248) "></path>
                    <path d="M346.764618,257.041 C379.62039,300.772112 388.92273,360.339925 366.01265,414.31269 C343.095755,468.301512 293.761783,502.993829 239.461612,509.722922 C206.604872,465.991501 197.302532,406.423689 220.212612,352.450923 C243.128945,298.463424 292.46106,263.771486 346.759656,257.041187 Z" id="Combined-Shape-Copy-4" fill="#32C5FF" transform="translate(293.112658, 383.381744) rotate(154.000000) translate(-293.112658, -383.381744) "></path>
                    <path d="M248.706838,234.479023 C281.562611,278.210135 290.864951,337.777947 267.954871,391.750713 C245.037976,445.739535 195.704003,480.431851 141.403833,487.160944 C108.547093,443.429523 99.2447525,383.861711 122.154832,329.888945 C145.071166,275.901447 194.403281,241.209508 248.701876,234.479209 Z" id="Combined-Shape-Copy-4" fill="#32C5FF" transform="translate(195.054878, 360.819767) rotate(206.000000) translate(-195.054878, -360.819767) "></path>
                    <path d="M205.208477,143.747201 C238.06425,187.478313 247.36659,247.046125 224.45651,301.018891 C201.539615,355.007713 152.205642,389.700029 97.905472,396.429122 C65.0487315,352.697702 55.7463914,293.129889 78.6564713,239.157123 C101.572805,185.169625 150.90492,150.477686 205.203515,143.747387 Z" id="Combined-Shape-Copy-4" fill="#32C5FF" transform="translate(151.556517, 270.087945) rotate(257.000000) translate(-151.556517, -270.087945) "></path>
                    <path d="M249.024688,53.1684474 C281.88046,96.8995593 291.1828,156.467372 268.27272,210.440137 C245.355825,264.428959 196.021852,299.121276 141.721682,305.850369 C108.864942,262.118948 99.5626017,202.551135 122.472682,148.57837 C145.389015,94.5908714 194.72113,59.8989325 249.019725,53.1686335 Z" id="Combined-Shape-Copy-4" fill="#32C5FF" transform="translate(195.372727, 179.509191) rotate(309.000000) translate(-195.372727, -179.509191) "></path>
                    <ellipse id="Eye-Copy-6" fill-opacity="0.85" fill="#000000" cx="190.658982" cy="263.791217" rx="41.65" ry="45"></ellipse>
                    <ellipse id="Eye-Copy-5" fill-opacity="0.85" fill="#000000" cx="318.658982" cy="262.791217" rx="41.65" ry="45"></ellipse>
                    <path d="M302.764801,232.334799 C303.283735,232.350496 303.394936,232.452685 303.451301,232.585777 L305.3312,237.024702 C305.52404,237.480044 305.928906,237.811091 306.413479,237.909647 L311.252248,238.893793 C311.387549,238.921311 311.498887,239.001066 311.56952,239.107767 C311.640154,239.214467 311.670082,239.348114 311.642563,239.483415 C311.62359,239.5767 311.578951,239.660549 311.516041,239.727137 C311.453131,239.793724 311.37195,239.843049 311.279892,239.867285 L306.591515,241.101594 C306.099117,241.231228 305.706102,241.601799 305.54777,242.085733 L304.081573,246.567122 C304.038639,246.698349 303.946579,246.799749 303.832447,246.85761 C303.718315,246.915471 303.582109,246.929791 303.450883,246.886857 C303.313513,246.841913 303.202312,246.739723 303.145947,246.606631 L301.266047,242.167707 C301.073208,241.712365 300.668341,241.381317 300.183769,241.282761 L295.345,240.298616 C295.209698,240.271098 295.09836,240.191343 295.027727,240.084642 C294.957094,239.977941 294.927166,239.844295 294.954684,239.708994 C294.973657,239.615709 295.018296,239.53186 295.081206,239.465272 C295.144117,239.398685 295.225298,239.34936 295.317356,239.325124 L300.005732,238.090815 C300.498131,237.961181 300.891146,237.59061 301.049477,237.106676 L302.515675,232.625287 C302.558609,232.49406 302.650668,232.39266 302.764801,232.334799 Z" id="Star-Copy-6" stroke="#979797" fill="#FFFFFF"></path>
                    <path d="M168.431874,234.667929 C168.950808,234.683626 169.062009,234.785816 169.118374,234.918908 L170.998274,239.357832 C171.191113,239.813175 171.59598,240.144222 172.080552,240.242778 L176.919321,241.226923 C177.054622,241.254441 177.165961,241.334196 177.236594,241.440897 C177.307227,241.547598 177.337155,241.681244 177.309636,241.816545 C177.290663,241.90983 177.246025,241.993679 177.183115,242.060267 C177.120204,242.126854 177.039023,242.176179 176.946965,242.200415 L172.258589,243.434724 C171.76619,243.564358 171.373175,243.934929 171.214844,244.418864 L169.748646,248.900253 C169.705712,249.031479 169.613653,249.13288 169.49952,249.19074 C169.385388,249.248601 169.249182,249.262921 169.117956,249.219987 C168.980586,249.175043 168.869385,249.072854 168.81302,248.939762 L166.933121,244.500838 C166.740281,244.045495 166.335414,243.714448 165.850842,243.615892 L161.012073,242.631746 C160.876772,242.604228 160.765434,242.524473 160.6948,242.417772 C160.624167,242.311072 160.594239,242.177425 160.621758,242.042124 C160.640731,241.94884 160.68537,241.86499 160.74828,241.798403 C160.81119,241.731815 160.892371,241.68249 160.984429,241.658254 L165.672806,240.423945 C166.165204,240.294311 166.558219,239.92374 166.71655,239.439806 L168.182748,234.958417 C168.225682,234.827191 168.317742,234.72579 168.431874,234.667929 Z" id="Star-Copy-5" stroke="#979797" fill="#FFFFFF"></path>
                    <circle id="Oval-Copy-5" stroke="#979797" fill="#FFFFFF" cx="337.090578" cy="246.972565" r="7.36359077"></circle>
                    <path d="M183.086804,262.291217 C187.36701,262.291217 191.24201,264.026113 194.046959,266.831062 C196.851907,269.63601 198.586804,273.51101 198.586804,277.791217 C198.586804,282.071424 196.851907,285.946424 194.046959,288.751372 C191.24201,291.55632 187.36701,293.291217 183.086804,293.291217 C178.806597,293.291217 174.931597,291.55632 172.126649,288.751372 C169.3217,285.946424 167.586804,282.071424 167.586804,277.791217 C167.586804,273.51101 169.3217,269.63601 172.126649,266.831062 C174.931597,264.026113 178.806597,262.291217 183.086804,262.291217 Z M307.086804,259.291217 C311.36701,259.291217 315.24201,261.026113 318.046959,263.831062 C320.851907,266.63601 322.586804,270.51101 322.586804,274.791217 C322.586804,279.071424 320.851907,282.946424 318.046959,285.751372 C315.24201,288.55632 311.36701,290.291217 307.086804,290.291217 C302.806597,290.291217 298.931597,288.55632 296.126649,285.751372 C293.3217,282.946424 291.586804,279.071424 291.586804,274.791217 C291.586804,270.51101 293.3217,266.63601 296.126649,263.831062 C298.931597,261.026113 302.806597,259.291217 307.086804,259.291217 Z M203.170819,241.881792 C205.204218,241.881792 207.045116,242.70599 208.377664,244.038538 C209.710212,245.371086 210.53441,247.211984 210.53441,249.245383 C210.53441,251.278783 209.710212,253.11968 208.377664,254.452228 C207.045116,255.784776 205.204218,256.608974 203.170819,256.608974 C201.137419,256.608974 199.296522,255.784776 197.963974,254.452228 C196.631426,253.11968 195.807228,251.278783 195.807228,249.245383 C195.807228,247.211984 196.631426,245.371086 197.963974,244.038538 C199.296522,242.70599 201.137419,241.881792 203.170819,241.881792 Z" id="Oval-Copy-7" stroke="#979797" fill="#FFFFFF"></path>
                    <path d="M304.041963,190.291217 C314.931849,193.62455 323.776657,195.291217 330.576389,195.291217 C337.376121,195.291217 344.864645,193.62455 353.041963,190.291217" id="Path-3" stroke="#000000" stroke-width="10" transform="translate(328.541963, 192.791217) rotate(14.000000) translate(-328.541963, -192.791217) "></path>
                    <path d="M156.041963,194.291217 C166.931849,197.62455 175.776657,199.291217 182.576389,199.291217 C189.376121,199.291217 196.864645,197.62455 205.041963,194.291217" id="Path-3-Copy" stroke="#000000" stroke-width="10" transform="translate(180.541963, 196.791217) rotate(-16.000000) translate(-180.541963, -196.791217) "></path>
                    <path d="M246.188591,357.92679 C248.737878,357.077028 251.611338,357.199786 254.204725,358.496479 C256.236763,359.512498 257.884449,361.160184 258.900468,363.192222 L271.602094,388.595474 C272.898788,391.188861 273.021545,394.062322 272.171783,396.611608 C271.322021,399.160895 269.499738,401.386009 266.906351,402.682702 C265.448369,403.411693 263.840682,403.791217 262.210608,403.791217 L236.807356,403.791217 C233.907861,403.791217 231.282861,402.615964 229.382735,400.715838 C227.482609,398.815712 226.307356,396.190712 226.307356,393.291217 C226.307356,391.661143 226.68688,390.053456 227.415871,388.595474 L240.117497,363.192222 C241.41419,360.598835 243.639304,358.776552 246.188591,357.92679 Z" id="Triangle" stroke="#979797" fill="#E02020" transform="translate(249.508982, 373.791217) rotate(187.000000) translate(-249.508982, -373.791217) "></path>
                </g>
                <g id="Flower1">
                    <path d="M293.529052,20.0294774 C340.860931,47.4461802 372.69949,98.6444153 372.69949,157.278944 C372.69949,215.930056 340.84292,267.140666 293.48889,294.551667 C246.157087,267.136264 214.318528,215.938029 214.318528,157.3035 C214.318528,98.6536214 246.173759,47.4439302 293.526142,20.0325059 Z" id="Combined-Shape-Copy-3" fill="#44D7B6" transform="translate(293.509009, 157.291154) rotate(23.000000) translate(-293.509009, -157.291154) "></path>
                    <path d="M347.160969,30.9504107 C380.016741,74.6815226 389.319081,134.249335 366.409002,188.222101 C343.492106,242.210923 294.158134,276.903239 239.857964,283.632332 C207.001223,239.900911 197.698883,180.333099 220.608963,126.360333 C243.525297,72.3728347 292.857412,37.6808959 347.156007,30.9505969 Z" id="Combined-Shape-Copy-4" fill="#44D7B6"></path>
                    <path d="M425.7187,93.823726 C458.574473,137.554838 467.876813,197.12265 444.966733,251.095416 C422.049838,305.084238 372.715865,339.776554 318.415695,346.505647 C285.558955,302.774226 276.256615,243.206414 299.166694,189.233648 C322.083028,135.24615 371.415143,100.554211 425.713738,93.8239121 Z" id="Combined-Shape-Copy-4" fill="#44D7B6" transform="translate(372.066740, 220.164470) rotate(51.000000) translate(-372.066740, -220.164470) "></path>
                    <path d="M425.542307,194.443504 C458.39808,238.174616 467.70042,297.742429 444.79034,351.715194 C421.873445,405.704016 372.539472,440.396333 318.239302,447.125426 C285.382562,403.394005 276.080222,343.826192 298.990301,289.853427 C321.906635,235.865928 371.23875,201.17399 425.537345,194.443691 Z" id="Combined-Shape-Copy-4" fill="#44D7B6" transform="translate(371.890347, 320.784248) rotate(103.000000) translate(-371.890347, -320.784248) "></path>
                    <path d="M346.764618,257.041 C379.62039,300.772112 388.92273,360.339925 366.01265,414.31269 C343.095755,468.301512 293.761783,502.993829 239.461612,509.722922 C206.604872,465.991501 197.302532,406.423689 220.212612,352.450923 C243.128945,298.463424 292.46106,263.771486 346.759656,257.041187 Z" id="Combined-Shape-Copy-4" fill="#44D7B6" transform="translate(293.112658, 383.381744) rotate(154.000000) translate(-293.112658, -383.381744) "></path>
                    <path d="M248.706838,234.479023 C281.562611,278.210135 290.864951,337.777947 267.954871,391.750713 C245.037976,445.739535 195.704003,480.431851 141.403833,487.160944 C108.547093,443.429523 99.2447525,383.861711 122.154832,329.888945 C145.071166,275.901447 194.403281,241.209508 248.701876,234.479209 Z" id="Combined-Shape-Copy-4" fill="#44D7B6" transform="translate(195.054878, 360.819767) rotate(206.000000) translate(-195.054878, -360.819767) "></path>
                    <path d="M205.208477,143.747201 C238.06425,187.478313 247.36659,247.046125 224.45651,301.018891 C201.539615,355.007713 152.205642,389.700029 97.905472,396.429122 C65.0487315,352.697702 55.7463914,293.129889 78.6564713,239.157123 C101.572805,185.169625 150.90492,150.477686 205.203515,143.747387 Z" id="Combined-Shape-Copy-4" fill="#44D7B6" transform="translate(151.556517, 270.087945) rotate(257.000000) translate(-151.556517, -270.087945) "></path>
                    <path d="M249.024688,53.1684474 C281.88046,96.8995593 291.1828,156.467372 268.27272,210.440137 C245.355825,264.428959 196.021852,299.121276 141.721682,305.850369 C108.864942,262.118948 99.5626017,202.551135 122.472682,148.57837 C145.389015,94.5908714 194.72113,59.8989325 249.019725,53.1686335 Z" id="Combined-Shape-Copy-4" fill="#44D7B6" transform="translate(195.372727, 179.509191) rotate(309.000000) translate(-195.372727, -179.509191) "></path>
                    <ellipse id="Eye-Copy-4" fill-opacity="0.85" fill="#000000" cx="192.658982" cy="263.791217" rx="41.65" ry="45"></ellipse>
                    <ellipse id="Eye-Copy-3" fill-opacity="0.85" fill="#000000" cx="320.658982" cy="262.791217" rx="41.65" ry="45"></ellipse>
                    <path d="M304.764801,232.334799 C305.283735,232.350496 305.394936,232.452685 305.451301,232.585777 L307.3312,237.024702 C307.52404,237.480044 307.928906,237.811091 308.413479,237.909647 L313.252248,238.893793 C313.387549,238.921311 313.498887,239.001066 313.56952,239.107767 C313.640154,239.214467 313.670082,239.348114 313.642563,239.483415 C313.62359,239.5767 313.578951,239.660549 313.516041,239.727137 C313.453131,239.793724 313.37195,239.843049 313.279892,239.867285 L308.591515,241.101594 C308.099117,241.231228 307.706102,241.601799 307.54777,242.085733 L306.081573,246.567122 C306.038639,246.698349 305.946579,246.799749 305.832447,246.85761 C305.718315,246.915471 305.582109,246.929791 305.450883,246.886857 C305.313513,246.841913 305.202312,246.739723 305.145947,246.606631 L303.266047,242.167707 C303.073208,241.712365 302.668341,241.381317 302.183769,241.282761 L297.345,240.298616 C297.209698,240.271098 297.09836,240.191343 297.027727,240.084642 C296.957094,239.977941 296.927166,239.844295 296.954684,239.708994 C296.973657,239.615709 297.018296,239.53186 297.081206,239.465272 C297.144117,239.398685 297.225298,239.34936 297.317356,239.325124 L302.005732,238.090815 C302.498131,237.961181 302.891146,237.59061 303.049477,237.106676 L304.515675,232.625287 C304.558609,232.49406 304.650668,232.39266 304.764801,232.334799 Z" id="Star-Copy-4" stroke="#979797" fill="#FFFFFF"></path>
                    <path d="M170.431874,234.667929 C170.950808,234.683626 171.062009,234.785816 171.118374,234.918908 L172.998274,239.357832 C173.191113,239.813175 173.59598,240.144222 174.080552,240.242778 L178.919321,241.226923 C179.054622,241.254441 179.165961,241.334196 179.236594,241.440897 C179.307227,241.547598 179.337155,241.681244 179.309636,241.816545 C179.290663,241.90983 179.246025,241.993679 179.183115,242.060267 C179.120204,242.126854 179.039023,242.176179 178.946965,242.200415 L174.258589,243.434724 C173.76619,243.564358 173.373175,243.934929 173.214844,244.418864 L171.748646,248.900253 C171.705712,249.031479 171.613653,249.13288 171.49952,249.19074 C171.385388,249.248601 171.249182,249.262921 171.117956,249.219987 C170.980586,249.175043 170.869385,249.072854 170.81302,248.939762 L168.933121,244.500838 C168.740281,244.045495 168.335414,243.714448 167.850842,243.615892 L163.012073,242.631746 C162.876772,242.604228 162.765434,242.524473 162.6948,242.417772 C162.624167,242.311072 162.594239,242.177425 162.621758,242.042124 C162.640731,241.94884 162.68537,241.86499 162.74828,241.798403 C162.81119,241.731815 162.892371,241.68249 162.984429,241.658254 L167.672806,240.423945 C168.165204,240.294311 168.558219,239.92374 168.71655,239.439806 L170.182748,234.958417 C170.225682,234.827191 170.317742,234.72579 170.431874,234.667929 Z" id="Star-Copy-3" stroke="#979797" fill="#FFFFFF"></path>
                    <circle id="Oval-Copy-3" stroke="#979797" fill="#FFFFFF" cx="339.090578" cy="246.972565" r="7.36359077"></circle>
                    <circle id="Oval-Copy-2" stroke="#979797" fill="#FFFFFF" cx="205.170819" cy="249.245383" r="7.36359077"></circle>
                    <circle id="Oval" stroke="#979797" fill="#FFFFFF" cx="183.086804" cy="279.791217" r="15.5"></circle>
                    <circle id="Oval-Copy-9" stroke="#979797" fill="#FFFFFF" cx="313.086804" cy="279.791217" r="15.5"></circle>
                    <path d="M158.232184,177.384577 C169.12207,180.71791 177.966879,182.384577 184.76661,182.384577 C191.566342,182.384577 199.054866,180.71791 207.232184,177.384577" id="Path-3-Copy-3" stroke="#000000" stroke-width="10" transform="translate(182.732184, 179.884577) rotate(163.000000) translate(-182.732184, -179.884577) "></path>
                    <path d="M292.139833,177.80223 C303.029719,181.135563 311.874528,182.80223 318.67426,182.80223 C325.473991,182.80223 332.962516,181.135563 341.139833,177.80223" id="Path-3-Copy-2" stroke="#000000" stroke-width="10" transform="translate(316.639833, 180.302230) rotate(190.000000) translate(-316.639833, -180.302230) "></path>
                    <path d="M238.188591,357.92679 C240.737878,357.077028 243.611338,357.199786 246.204725,358.496479 C248.236763,359.512498 249.884449,361.160184 250.900468,363.192222 L263.602094,388.595474 C264.898788,391.188861 265.021545,394.062322 264.171783,396.611608 C263.322021,399.160895 261.499738,401.386009 258.906351,402.682702 C257.448369,403.411693 255.840682,403.791217 254.210608,403.791217 L228.807356,403.791217 C225.907861,403.791217 223.282861,402.615964 221.382735,400.715838 C219.482609,398.815712 218.307356,396.190712 218.307356,393.291217 C218.307356,391.661143 218.68688,390.053456 219.415871,388.595474 L232.117497,363.192222 C233.41419,360.598835 235.639304,358.776552 238.188591,357.92679 Z" id="Triangle-Copy" stroke="#979797" fill="#B620E0" transform="translate(241.508982, 373.791217) rotate(187.000000) translate(-241.508982, -373.791217) "></path>
                </g>
            </g>
            <g id="Star" transform="translate(542.000000, 13.000000)">
                <g id="Group">
                    <path d="M328.64889,463.275395 L168.763724,539.952031 C160.298059,544.011937 150.144077,540.440364 146.08417,531.974698 C144.519946,528.712996 144.036933,525.037365 144.705366,521.48227 L174.445026,363.310462 C175.547858,357.444999 173.494092,351.43081 169.034012,347.465008 L44.1975004,236.463182 C37.1811991,230.224445 36.5508593,219.479113 42.7895969,212.462811 C45.500065,209.414525 49.2162232,207.442442 53.2599095,206.906448 L228.658828,183.657187 C234.057023,182.941653 238.785744,179.683433 241.376947,174.894051 L321.048056,27.6360352 C325.515742,19.3783046 335.83173,16.3058663 344.089461,20.7735522 C346.995177,22.345634 349.379862,24.7303188 350.951944,27.6360352 L430.623053,174.894051 C433.214256,179.683433 437.942977,182.941653 443.341172,183.657187 L618.74009,206.906448 C628.047523,208.140155 634.59257,216.685438 633.358863,225.99287 C632.822869,230.036556 630.850786,233.752714 627.8025,236.463182 L502.965988,347.465008 C498.505908,351.43081 496.452142,357.444999 497.554974,363.310462 L527.294634,521.48227 C529.029535,530.709429 522.955862,539.595934 513.728704,541.330836 C510.173609,541.999269 506.497978,541.516256 503.236276,539.952031 L343.35111,463.275395 C338.703765,461.046653 333.296235,461.046653 328.64889,463.275395 Z" id="Star" fill="#F7B500"></path>
                    <ellipse id="Eye" fill-opacity="0.85" fill="#000000" cx="404.95" cy="269" rx="41.65" ry="45"></ellipse>
                    <ellipse id="Eye" fill-opacity="0.85" fill="#000000" cx="263.65" cy="269" rx="41.65" ry="45"></ellipse>
                </g>
                <path d="M248.742206,256.314643 L243.903437,255.330498 C243.362233,255.220424 243.012733,254.692458 243.122807,254.151254 C243.198699,253.778115 243.479918,253.480457 243.848149,253.383513 L248.536526,252.149204 C248.864791,252.062782 249.126802,251.815734 249.232356,251.493111 L250.698554,247.011722 C250.870289,246.486817 251.435028,246.200517 251.959933,246.372253 C252.234673,246.462141 252.457075,246.66652 252.569804,246.932704 L254.449704,251.371628 C254.578264,251.67519 254.848175,251.895888 255.171224,251.961592 L260.009993,252.945737 C260.551197,253.055812 260.900697,253.583777 260.790623,254.124982 C260.714731,254.498121 260.433512,254.795778 260.06528,254.892722 L255.376904,256.127031 C255.048638,256.213454 254.786628,256.460501 254.681074,256.783124 L253.214876,261.264513 C253.04314,261.789418 252.478401,262.075719 251.953496,261.903983 C251.678756,261.814095 251.456355,261.609715 251.343625,261.343531 L249.463725,256.904607 C249.335166,256.601045 249.065254,256.380347 248.742206,256.314643 Z" id="Star-Copy" fill="#FFFFFF"></path>
                <path d="M398.075133,255.981513 L393.236364,254.997368 C392.695159,254.887294 392.345659,254.359328 392.455734,253.818124 C392.531625,253.444985 392.812845,253.147327 393.181076,253.050383 L397.869453,251.816074 C398.197718,251.729651 398.459729,251.482604 398.565283,251.159981 L400.03148,246.678592 C400.203216,246.153687 400.767955,245.867387 401.29286,246.039123 C401.5676,246.129011 401.790001,246.33339 401.902731,246.599574 L403.782631,251.038498 C403.911191,251.34206 404.181102,251.562758 404.50415,251.628462 L409.342919,252.612607 C409.884124,252.722681 410.233624,253.250647 410.123549,253.791851 C410.047658,254.164991 409.766438,254.462648 409.398207,254.559592 L404.70983,255.793901 C404.381565,255.880324 404.119555,256.127371 404.014,256.449994 L402.547803,260.931383 C402.376067,261.456288 401.811328,261.742588 401.286423,261.570853 C401.011683,261.480965 400.789282,261.276585 400.676552,261.010401 L398.796652,256.571477 C398.668092,256.267915 398.398181,256.047217 398.075133,255.981513 Z" id="Star-Copy-2" fill="#FFFFFF"></path>
                <circle id="Oval" stroke="#979797" fill="#FFFFFF" cx="401.275877" cy="287.5" r="18"></circle>
                <circle id="Oval" stroke="#979797" fill="#FFFFFF" cx="428.081596" cy="261.181348" r="7.36359077"></circle>
                <circle id="Oval" stroke="#979797" fill="#FFFFFF" cx="286.161836" cy="261.454166" r="7.36359077"></circle>
                <circle id="Oval" stroke="#979797" fill="#FFFFFF" cx="259.5" cy="287.5" r="18"></circle>
                <path d="M422.926322,353.5 C422.966971,392.947689 391.021254,424.959313 351.573564,424.999962 L324.5,425 C285.01164,425 253,392.98836 253,353.5 C253,351.648941 253.070341,349.81431 253.208497,347.998636 L422.712384,347.999115 C422.852261,349.814594 422.924415,351.649062 422.926322,353.5 Z" id="Combined-Shape" fill-opacity="0.85" fill="#000000"></path>
                <path d="M305.660333,383.082676 L310.388731,387.334725 C317.519657,393.747265 326.375559,397.92631 335.858846,399.353913 L355.250082,402.273046 C360.170308,403.01373 363.558496,407.602805 362.817811,412.523031 C362.451136,414.958779 361.10315,417.138178 359.087551,418.554045 L354.410557,421.839422 C353.053308,422.792828 351.795409,423.851655 350.644121,425.000004 L326.314163,425 C300.361472,425 277.516003,411.696406 264.225285,391.53675 C266.110309,390.267542 267.909887,388.864706 269.611269,387.334725 L274.339667,383.082676 C283.244416,375.075011 296.755584,375.075011 305.660333,383.082676 Z" id="Combined-Shape" fill="#E02020"></path>
            </g>
            <text id="The-One-a.k.a-The-On" font-family="AcademyEngravedLetPlain, Academy Engraved LET" font-size="70" font-weight="normal" fill="#000000">
                <tspan x="89.1137695" y="693">The One</tspan>
                <tspan x="156.943359" y="793">a.k.a</tspan>
                <tspan x="89.8144531" y="893">The-One</tspan>
            </text>
            <text id="The-Star-a.k.a.-Star" font-family="AcademyEngravedLetPlain, Academy Engraved LET" font-size="70" font-weight="normal" fill="#000000">
                <tspan x="750.304688" y="678">The Star</tspan>
                <tspan x="804.650391" y="778">a.k.a.</tspan>
                <tspan x="783.356445" y="878">Star-ry</tspan>
            </text>
            <text id="The-Leaf-a.k.a.-Simp" font-family="AcademyEngravedLetPlain, Academy Engraved LET" font-size="70" font-weight="normal" fill="#000000">
                <tspan x="1293.98145" y="691">The Leaf</tspan>
                <tspan x="1354.65039" y="791">a.k.a.</tspan>
                <tspan x="1265.69775" y="891">Simp-leaf-y</tspan>
            </text>
            <text id="The-Best-Friends-a.k" font-family="AcademyEngravedLetPlain, Academy Engraved LET" font-size="70" font-weight="normal" fill="#000000">
                <tspan x="1955.88232" y="693">The Best Friends</tspan>
                <tspan x="2135.65039" y="793">a.k.a.</tspan>
                <tspan x="1857.9917" y="893">Best-Buds-Forever(BFF)</tspan>
            </text>
        </g>
    </g>
</svg>