<?xml version="1.0" encoding="UTF-8"?>
<svg width="2013px" height="927px" viewBox="0 0 2013 927" version="1.1" xmlns="http://www.w3.org/2000/svg" xmlns:xlink="http://www.w3.org/1999/xlink">
    <title>Group</title>
    <g id="Leaf" stroke="none" stroke-width="1" fill="none" fill-rule="evenodd">
        <g id="Group" transform="translate(-0.002101, -0.000014)">
            <g id="Leaf" transform="translate(0.000000, 0.000000)">
                <path d="M222.419587,466.209614 C57.1626262,644.364105 -0.21283962,734.960905 50.2931893,738.000014" id="Path-2" stroke="#6E5555" stroke-width="10"></path>
                <path d="M251.502486,39.7811019 C345.581266,94.3536247 408.851955,196.167153 408.851955,312.758575 C408.851955,429.349997 345.581266,531.163525 251.502486,585.736048 C157.422511,531.162842 94.1522463,429.349606 94.1522463,312.758575 C94.1522463,197.809215 155.653289,97.2244202 247.545148,42.1149056 Z" id="Combined-Shape" fill="#6DD400" transform="translate(251.502101, 312.758575) rotate(23.000000) translate(-251.502101, -312.758575) "></path>
                <ellipse id="Eye-Copy" fill-opacity="0.85" fill="#000000" cx="182.125119" cy="254.889327" rx="54.1621606" ry="58.5194641"></ellipse>
                <ellipse id="Eye-Copy-2" fill-opacity="0.85" fill="#000000" cx="348.577858" cy="253.588894" rx="54.1621606" ry="58.5194641"></ellipse>
                <path d="M327.940658,213.260684 C328.459594,213.276379 328.570796,213.37857 328.627161,213.511664 L331.446268,220.168401 C331.639105,220.623746 332.043972,220.954796 332.528545,221.053354 L340.238803,222.621549 C340.374104,222.649068 340.485442,222.728823 340.556075,222.835524 C340.626707,222.942225 340.656635,223.075871 340.629116,223.211172 C340.610143,223.304456 340.565504,223.388305 340.502595,223.454892 C340.439685,223.521479 340.358504,223.570804 340.266447,223.59504 L332.765244,225.569913 C332.272845,225.699549 331.879831,226.070122 331.721502,226.554058 L329.514592,233.299518 C329.471659,233.430745 329.3796,233.532146 329.265468,233.590007 C329.151336,233.647868 329.01513,233.662189 328.883904,233.619256 C328.746532,233.574312 328.63533,233.472121 328.578965,233.339027 L325.759858,226.68229 C325.567021,226.226945 325.162154,225.895895 324.677581,225.797337 L316.967323,224.229142 C316.832022,224.201624 316.720684,224.121868 316.650051,224.015167 C316.579419,223.908467 316.549491,223.77482 316.57701,223.639519 C316.595983,223.546235 316.640621,223.462386 316.703531,223.395799 C316.766441,223.329212 316.847622,223.279887 316.939679,223.255651 L324.440882,221.280778 C324.93328,221.151142 325.326295,220.780569 325.484623,220.296633 L327.691534,213.551173 C327.734467,213.419947 327.826526,213.318546 327.940658,213.260684 Z" id="Star-Copy-2" stroke="#979797" fill="#FFFFFF"></path>
                <path d="M153.252505,216.294763 C153.771441,216.310458 153.882644,216.412649 153.939008,216.545743 L156.758115,223.202479 C156.950952,223.657825 157.355819,223.988874 157.840393,224.087432 L165.55065,225.655627 C165.685951,225.683146 165.797289,225.762901 165.867922,225.869602 C165.938555,225.976303 165.968483,226.109949 165.940964,226.24525 C165.921991,226.338535 165.877352,226.422384 165.814442,226.488971 C165.751533,226.555558 165.670352,226.604883 165.578295,226.629119 L158.077091,228.603992 C157.584693,228.733628 157.191679,229.104201 157.03335,229.588136 L154.82644,236.333597 C154.783506,236.464823 154.691448,236.566224 154.577315,236.624085 C154.463183,236.681946 154.326978,236.696268 154.195751,236.653334 C154.058379,236.60839 153.947177,236.506199 153.890812,236.373105 L151.071706,229.716369 C150.878868,229.261024 150.474002,228.929974 149.989428,228.831416 L142.27917,227.263221 C142.143869,227.235702 142.032532,227.155947 141.961899,227.049246 C141.891266,226.942545 141.861338,226.808899 141.888857,226.673598 C141.90783,226.580314 141.952469,226.496465 142.015379,226.429878 C142.078288,226.363291 142.159469,226.313966 142.251526,226.289729 L149.75273,224.314856 C150.245128,224.18522 150.638142,223.814647 150.796471,223.330712 L153.003381,216.585252 C153.046314,216.454025 153.138373,216.352624 153.252505,216.294763 Z" id="Star-Copy" stroke="#979797" fill="#FFFFFF"></path>
                <ellipse id="Oval" stroke="#979797" fill="#FFFFFF" cx="372.546526" cy="233.017804" rx="9.72590795" ry="9.72606929"></ellipse>
                <ellipse id="Oval" stroke="#979797" fill="#FFFFFF" cx="198.395662" cy="235.973452" rx="9.72590795" ry="9.72606929"></ellipse>
                <path d="M361.74567,254.088894 C367.35318,254.088894 372.429827,256.361823 376.104596,260.036651 C379.779369,263.711482 382.052262,268.788213 382.052262,274.395815 C382.052262,280.003417 379.779369,285.080149 376.104596,288.754979 C372.429827,292.429807 367.35318,294.702736 361.74567,294.702736 C356.13816,294.702736 351.061513,292.429807 347.386744,288.754979 C343.711971,285.080149 341.439078,280.003417 341.439078,274.395815 C341.439078,268.788213 343.711971,263.711482 347.386744,260.036651 C351.061513,256.361823 356.13816,254.088894 361.74567,254.088894 Z M178.780227,254.088894 C184.387737,254.088894 189.464384,256.361823 193.139154,260.036651 C196.813926,263.711482 199.086819,268.788213 199.086819,274.395815 C199.086819,280.003417 196.813926,285.080149 193.139154,288.754979 C189.464384,292.429807 184.387737,294.702736 178.780227,294.702736 C173.172717,294.702736 168.096071,292.429807 164.421301,288.754979 C160.746528,285.080149 158.473635,280.003417 158.473635,274.395815 C158.473635,268.788213 160.746528,263.711482 164.421301,260.036651 C168.096071,256.361823 173.172717,254.088894 178.780227,254.088894 Z" id="Oval-3" stroke="#979797" fill="#FFFFFF"></path>
                <path d="M321.659264,375.82908 L321.674851,395.547152 C321.702167,430.595476 293.312031,459.0299 258.263707,459.057216 L258.214247,459.057235 C216.442752,459.057235 182.580264,425.194747 182.580264,383.423251 L182.580264,375.829553 L321.659264,375.82908 Z" id="Combined-Shape-Copy-2" fill-opacity="0.85" fill="#000000"></path>
                <path d="M246.729634,418.907974 C247.4502,419.516453 248.118261,420.184514 248.72674,420.90508 L250.492042,422.995563 C257.660805,431.484864 267.501986,437.285655 278.401115,439.446301 L287.452958,441.240741 C293.12607,442.36538 296.813335,447.876046 295.688696,453.549158 C295.258458,455.719442 294.151881,457.697694 292.527707,459.200125 L290.706351,460.884957 C289.154775,462.320232 287.740477,463.872268 286.471376,465.520868 L285.169255,465.521257 C256.347027,465.521257 231.063028,450.372297 216.845196,427.602314 C218.418197,426.171344 219.900827,424.633495 221.283973,422.995563 L223.049276,420.90508 C229.03694,413.814444 239.638998,412.920309 246.729634,418.907974 Z" id="Combined-Shape-Copy" fill="#E02020" transform="translate(256.367895, 440.231807) rotate(-27.000000) translate(-256.367895, -440.231807) "></path>
                <path d="M284.782658,376.329553 C287.538496,376.329553 288.544856,376.598819 289.554234,377.138641 C290.52507,377.65785 291.286988,378.419768 291.806197,379.390604 C292.346019,380.399982 292.615285,381.406342 292.615285,384.16218 L292.615285,390.904712 C292.615285,393.660549 292.346019,394.666909 291.806197,395.676288 C291.286988,396.647124 290.52507,397.409042 289.554234,397.928251 C288.544856,398.468072 287.538496,398.737338 284.782658,398.737338 L231.225663,398.737338 C228.469826,398.737338 227.463465,398.468072 226.454087,397.928251 C225.483251,397.409042 224.721333,396.647124 224.202124,395.676288 C223.662303,394.666909 223.393036,393.660549 223.393036,390.904712 L223.393036,384.16218 C223.393036,381.406342 223.662303,380.399982 224.202124,379.390604 C224.721333,378.419768 225.483251,377.65785 226.454087,377.138641 C227.463465,376.598819 228.469826,376.329553 231.225663,376.329553 Z" id="Rectangle" stroke="#979797" fill="#FFFFFF"></path>
            </g>
            <g id="Leaf-Copy-2" transform="translate(1007.000000, 0.000000)">
                <path d="M222.419587,466.209614 C57.1626262,644.364105 -0.21283962,734.960905 50.2931893,738.000014" id="Path-2" stroke="#6E5555" stroke-width="10"></path>
                <path d="M251.502486,39.7811019 C345.581266,94.3536247 408.851955,196.167153 408.851955,312.758575 C408.851955,429.349997 345.581266,531.163525 251.502486,585.736048 C157.422511,531.162842 94.1522463,429.349606 94.1522463,312.758575 C94.1522463,197.809215 155.653289,97.2244202 247.545148,42.1149056 Z" id="Combined-Shape" fill="#6DD400" transform="translate(251.502101, 312.758575) rotate(23.000000) translate(-251.502101, -312.758575) "></path>
                <ellipse id="Eye-Copy" fill-opacity="0.85" fill="#000000" cx="182.125119" cy="254.889327" rx="54.1621606" ry="58.5194641"></ellipse>
                <ellipse id="Eye-Copy-3" fill-opacity="0.85" fill="#000000" cx="260.14984" cy="410.941231" rx="54.1621606" ry="58.5194641"></ellipse>
                <ellipse id="Eye-Copy-2" fill-opacity="0.85" fill="#000000" cx="348.577858" cy="253.588894" rx="54.1621606" ry="58.5194641"></ellipse>
                <path d="M339.638666,234.582406 C345.246175,234.582406 350.322822,236.855335 353.997592,240.530163 C357.672365,244.204993 359.945258,249.281725 359.945258,254.889327 C359.945258,260.496929 357.672365,265.57366 353.997592,269.248491 C350.322822,272.923319 345.246175,275.196248 339.638666,275.196248 C334.031156,275.196248 328.954509,272.923319 325.279739,269.248491 C321.604967,265.57366 319.332073,260.496929 319.332073,254.889327 C319.332073,249.281725 321.604967,244.204993 325.279739,240.530163 C328.954509,236.855335 334.031156,234.582406 339.638666,234.582406 Z M181.381051,234.582406 C186.988561,234.582406 192.065208,236.855335 195.739978,240.530163 C199.41475,244.204993 201.687644,249.281725 201.687644,254.889327 C201.687644,260.496929 199.41475,265.57366 195.739978,269.248491 C192.065208,272.923319 186.988561,275.196248 181.381051,275.196248 C175.773542,275.196248 170.696895,272.923319 167.022125,269.248491 C163.347352,265.57366 161.074459,260.496929 161.074459,254.889327 C161.074459,249.281725 163.347352,244.204993 167.022125,240.530163 C170.696895,236.855335 175.773542,234.582406 181.381051,234.582406 Z" id="Oval-3" stroke="#979797" fill="#FFFFFF"></path>
                <path d="M250.63087,422.809272 C251.351436,423.417751 252.019497,424.085812 252.627976,424.806377 L254.393278,426.896861 C261.562041,435.386162 271.403222,441.186953 282.302351,443.347599 L291.354194,445.142039 C297.027306,446.266678 300.714571,451.777344 299.589932,457.450455 C299.159694,459.62074 298.053117,461.598991 296.428943,463.101422 L294.607588,464.786254 C293.056011,466.221529 291.641713,467.773566 290.372612,469.422165 L289.070491,469.422555 C260.248263,469.422555 234.964264,454.273595 220.746432,431.503612 C222.319433,430.072641 223.802063,428.534793 225.185209,426.896861 L226.950512,424.806377 C232.938177,417.715741 243.540234,416.821607 250.63087,422.809272 Z" id="Combined-Shape-Copy" fill="#E02020" transform="translate(260.269131, 444.133105) rotate(-27.000000) translate(-260.269131, -444.133105) "></path>
                <path d="M232.526075,365.426093 L286.08307,365.426093 C288.980506,365.426093 290.031186,365.727776 291.090446,366.294274 C292.149705,366.860772 292.981018,367.692085 293.547516,368.751344 C294.114014,369.810603 294.415697,370.861284 294.415697,373.758719 L294.415697,380.501251 C294.415697,383.398687 294.114014,384.449367 293.547516,385.508627 C292.981018,386.567886 292.149705,387.399199 291.090446,387.965697 C290.031186,388.532195 288.980506,388.833878 286.08307,388.833878 L232.526075,388.833878 C229.628639,388.833878 228.577959,388.532195 227.5187,387.965697 C226.45944,387.399199 225.628127,386.567886 225.061629,385.508627 C224.495131,384.449367 224.193448,383.398687 224.193448,380.501251 L224.193448,373.758719 C224.193448,370.861284 224.495131,369.810603 225.061629,368.751344 C225.628127,367.692085 226.45944,366.860772 227.5187,366.294274 C228.577959,365.727776 229.628639,365.426093 232.526075,365.426093 Z" id="Rectangle" fill="#FFFFFF"></path>
            </g>
            <g id="Leaf-Copy-4" transform="translate(1510.000000, 0.000000)">
                <path d="M222.419587,466.209614 C57.1626262,644.364105 -0.21283962,734.960905 50.2931893,738.000014" id="Path-2" stroke="#6E5555" stroke-width="10"></path>
                <path d="M251.502486,39.7811019 C345.581266,94.3536247 408.851955,196.167153 408.851955,312.758575 C408.851955,429.349997 345.581266,531.163525 251.502486,585.736048 C157.422511,531.162842 94.1522463,429.349606 94.1522463,312.758575 C94.1522463,197.809215 155.653289,97.2244202 247.545148,42.1149056 Z" id="Combined-Shape" fill="#6DD400" transform="translate(251.502101, 312.758575) rotate(23.000000) translate(-251.502101, -312.758575) "></path>
                <ellipse id="Eye-Copy-3" fill-opacity="0.85" fill="#000000" cx="260.14984" cy="410.941231" rx="54.1621606" ry="58.5194641"></ellipse>
                <path d="M250.63087,422.809272 C251.351436,423.417751 252.019497,424.085812 252.627976,424.806377 L254.393278,426.896861 C261.562041,435.386162 271.403222,441.186953 282.302351,443.347599 L291.354194,445.142039 C297.027306,446.266678 300.714571,451.777344 299.589932,457.450455 C299.159694,459.62074 298.053117,461.598991 296.428943,463.101422 L294.607588,464.786254 C293.056011,466.221529 291.641713,467.773566 290.372612,469.422165 L289.070491,469.422555 C260.248263,469.422555 234.964264,454.273595 220.746432,431.503612 C222.319433,430.072641 223.802063,428.534793 225.185209,426.896861 L226.950512,424.806377 C232.938177,417.715741 243.540234,416.821607 250.63087,422.809272 Z" id="Combined-Shape-Copy" fill="#E02020" transform="translate(260.269131, 444.133105) rotate(-27.000000) translate(-260.269131, -444.133105) "></path>
                <path d="M232.526075,365.426093 L286.08307,365.426093 C288.980506,365.426093 290.031186,365.727776 291.090446,366.294274 C292.149705,366.860772 292.981018,367.692085 293.547516,368.751344 C294.114014,369.810603 294.415697,370.861284 294.415697,373.758719 L294.415697,380.501251 C294.415697,383.398687 294.114014,384.449367 293.547516,385.508627 C292.981018,386.567886 292.149705,387.399199 291.090446,387.965697 C290.031186,388.532195 288.980506,388.833878 286.08307,388.833878 L232.526075,388.833878 C229.628639,388.833878 228.577959,388.532195 227.5187,387.965697 C226.45944,387.399199 225.628127,386.567886 225.061629,385.508627 C224.495131,384.449367 224.193448,383.398687 224.193448,380.501251 L224.193448,373.758719 C224.193448,370.861284 224.495131,369.810603 225.061629,368.751344 C225.628127,367.692085 226.45944,366.860772 227.5187,366.294274 C228.577959,365.727776 229.628639,365.426093 232.526075,365.426093 Z" id="Rectangle" fill="#FFFFFF"></path>
                <path d="M154.501354,248.387164 L208.058349,248.387164 C210.955785,248.387164 212.006465,248.688848 213.065725,249.255346 C214.124984,249.821844 214.956297,250.653157 215.522795,251.712416 C216.089293,252.771675 216.390976,253.822355 216.390976,256.719791 L216.390976,263.462323 C216.390976,266.359759 216.089293,267.410439 215.522795,268.469698 C214.956297,269.528958 214.124984,270.360271 213.065725,270.926769 C212.006465,271.493267 210.955785,271.79495 208.058349,271.79495 L154.501354,271.79495 C151.603918,271.79495 150.553238,271.493267 149.493979,270.926769 C148.434719,270.360271 147.603406,269.528958 147.036908,268.469698 C146.47041,267.410439 146.168727,266.359759 146.168727,263.462323 L146.168727,256.719791 C146.168727,253.822355 146.47041,252.771675 147.036908,251.712416 C147.603406,250.653157 148.434719,249.821844 149.493979,249.255346 C150.553238,248.688848 151.603918,248.387164 154.501354,248.387164 Z" id="Rectangle-Copy" fill="#000000"></path>
                <path d="M323.554916,248.387164 L377.111912,248.387164 C380.009347,248.387164 381.060028,248.688848 382.119287,249.255346 C383.178546,249.821844 384.009859,250.653157 384.576357,251.712416 C385.142855,252.771675 385.444538,253.822355 385.444538,256.719791 L385.444538,263.462323 C385.444538,266.359759 385.142855,267.410439 384.576357,268.469698 C384.009859,269.528958 383.178546,270.360271 382.119287,270.926769 C381.060028,271.493267 380.009347,271.79495 377.111912,271.79495 L323.554916,271.79495 C320.65748,271.79495 319.6068,271.493267 318.547541,270.926769 C317.488282,270.360271 316.656969,269.528958 316.090471,268.469698 C315.523973,267.410439 315.222289,266.359759 315.222289,263.462323 L315.222289,256.719791 C315.222289,253.822355 315.523973,252.771675 316.090471,251.712416 C316.656969,250.653157 317.488282,249.821844 318.547541,249.255346 C319.6068,248.688848 320.65748,248.387164 323.554916,248.387164 Z" id="Rectangle-Copy-2" fill="#000000"></path>
            </g>
            <g id="Leaf-Copy-3" transform="translate(503.000000, 0.000000)">
                <path d="M222.419587,466.209614 C57.1626262,644.364105 -0.21283962,734.960905 50.2931893,738.000014" id="Path-2" stroke="#6E5555" stroke-width="10"></path>
                <path d="M251.502486,39.7811019 C345.581266,94.3536247 408.851955,196.167153 408.851955,312.758575 C408.851955,429.349997 345.581266,531.163525 251.502486,585.736048 C157.422511,531.162842 94.1522463,429.349606 94.1522463,312.758575 C94.1522463,197.809215 155.653289,97.2244202 247.545148,42.1149056 Z" id="Combined-Shape" fill="#6DD400" transform="translate(251.502101, 312.758575) rotate(23.000000) translate(-251.502101, -312.758575) "></path>
                <ellipse id="Eye-Copy" fill-opacity="0.85" fill="#000000" cx="182.125119" cy="254.889327" rx="54.1621606" ry="58.5194641"></ellipse>
                <ellipse id="Eye-Copy-2" fill-opacity="0.85" fill="#000000" cx="348.577858" cy="253.588894" rx="54.1621606" ry="58.5194641"></ellipse>
                <ellipse id="Oval" stroke="#979797" fill="#FFFFFF" cx="372.546526" cy="233.017804" rx="9.72590795" ry="9.72606929"></ellipse>
                <ellipse id="Oval" stroke="#979797" fill="#FFFFFF" cx="198.395662" cy="235.973452" rx="9.72590795" ry="9.72606929"></ellipse>
                <path d="M216.921131,391.434743 L270.478126,391.434743 C273.375562,391.434743 274.426242,391.736426 275.485501,392.302925 C276.544761,392.869423 277.376074,393.700735 277.942572,394.759995 C278.50907,395.819254 278.810753,396.869934 278.810753,399.76737 L278.810753,406.509902 C278.810753,409.407338 278.50907,410.458018 277.942572,411.517277 C277.376074,412.576537 276.544761,413.40785 275.485501,413.974348 C274.426242,414.540846 273.375562,414.842529 270.478126,414.842529 L216.921131,414.842529 C214.023695,414.842529 212.973015,414.540846 211.913755,413.974348 C210.854496,413.40785 210.023183,412.576537 209.456685,411.517277 C208.890187,410.458018 208.588504,409.407338 208.588504,406.509902 L208.588504,399.76737 C208.588504,396.869934 208.890187,395.819254 209.456685,394.759995 C210.023183,393.700735 210.854496,392.869423 211.913755,392.302925 C212.973015,391.736426 214.023695,391.434743 216.921131,391.434743 Z" id="Rectangle" fill="#FFFFFF"></path>
            </g>
            <text id="Simp-leaf-y-(simplif" font-family="AcademyEngravedLetPlain, Academy Engraved LET" font-size="50" font-weight="normal" fill="#000000">
                <tspan x="115.071925" y="831.000014">Simp-leaf-y</tspan>
                <tspan x="103.951319" y="902.000014">(simplifying)</tspan>
            </text>
            <text id="Simp-leaf-y-(repeati" font-family="AcademyEngravedLetPlain, Academy Engraved LET" font-size="50" font-weight="normal" fill="#000000">
                <tspan x="1615.07192" y="831.000014">Simp-leaf-y</tspan>
                <tspan x="1620.90689" y="902.000014">(repeating)</tspan>
            </text>
            <text id="Simp-leaf-y-(explain" font-family="AcademyEngravedLetPlain, Academy Engraved LET" font-size="50" font-weight="normal" fill="#000000">
                <tspan x="1102.07192" y="831.000014">Simp-leaf-y</tspan>
                <tspan x="1096.60317" y="902.000014">(explaining)</tspan>
            </text>
            <text id="Simp-leaf-y-(confuse" font-family="AcademyEngravedLetPlain, Academy Engraved LET" font-size="50" font-weight="normal" fill="#000000">
                <tspan x="599.071925" y="831.000014">Simp-leaf-y</tspan>
                <tspan x="608.568995" y="902.000014">(confused)</tspan>
            </text>
        </g>
    </g>
</svg>