<?xml version="1.0" encoding="UTF-8"?>
<svg width="1548px" height="748px" viewBox="0 0 1548 748" version="1.1" xmlns="http://www.w3.org/2000/svg" xmlns:xlink="http://www.w3.org/1999/xlink">
    <title>Group</title>
    <g id="Leaf" stroke="none" stroke-width="1" fill="none" fill-rule="evenodd">
        <g id="Group">
            <g id="Leaf">
                <path d="M171.036166,358.503488 C43.955704,495.499823 -0.165286196,565.166489 38.6731959,567.503488" id="Path-2" stroke="#6E5555" stroke-width="10"></path>
                <path d="M193.401957,30.5914808 C265.746538,72.5565823 314.400243,150.848194 314.400243,240.503488 C314.400243,330.158782 265.746538,408.450394 193.401957,450.415495 C121.054398,408.451118 72.4002428,330.159197 72.4002428,240.503488 C72.4002428,152.110314 119.693748,74.7631296 190.357398,32.3852952 Z" id="Combined-Shape" fill="#6DD400" transform="translate(193.400243, 240.503488) rotate(23.000000) translate(-193.400243, -240.503488) "></path>
                <ellipse id="Eye-Copy" fill-opacity="0.85" fill="#000000" cx="140.050243" cy="196.003488" rx="41.65" ry="45"></ellipse>
                <ellipse id="Eye-Copy-2" fill-opacity="0.85" fill="#000000" cx="268.050243" cy="195.003488" rx="41.65" ry="45"></ellipse>
                <path d="M252.156061,164.54707 C252.674995,164.562767 252.786196,164.664957 252.842561,164.798049 L254.722461,169.236973 C254.9153,169.692315 255.320167,170.023363 255.80474,170.121919 L260.643509,171.106064 C260.77881,171.133582 260.890148,171.213337 260.960781,171.320038 C261.031414,171.426739 261.061342,171.560385 261.033824,171.695686 C261.014851,171.788971 260.970212,171.87282 260.907302,171.939408 C260.844392,172.005995 260.76321,172.05532 260.671152,172.079556 L255.982776,173.313865 C255.490377,173.443499 255.097362,173.81407 254.939031,174.298005 L253.472833,178.779394 C253.429899,178.91062 253.33784,179.01202 253.223707,179.069881 C253.109575,179.127742 252.97337,179.142062 252.842143,179.099128 C252.704773,179.054184 252.593573,178.951995 252.537208,178.818903 L250.657308,174.379979 C250.464469,173.924636 250.059602,173.593589 249.575029,173.495033 L244.73626,172.510887 C244.600959,172.483369 244.489621,172.403614 244.418988,172.296913 C244.348355,172.190213 244.318426,172.056566 244.345945,171.921265 C244.364918,171.827981 244.409557,171.744131 244.472467,171.677544 C244.535377,171.610956 244.616558,171.561631 244.708616,171.537395 L249.396993,170.303086 C249.889391,170.173452 250.282407,169.802881 250.440738,169.318947 L251.906935,164.837558 C251.949869,164.706331 252.041929,164.604931 252.156061,164.54707 Z" id="Star-Copy-2" stroke="#979797" fill="#FFFFFF"></path>
                <path d="M117.823134,166.8802 C118.342069,166.895897 118.453269,166.998087 118.509634,167.131179 L120.389534,171.570103 C120.582373,172.025446 120.98724,172.356493 121.471813,172.455049 L126.310582,173.439194 C126.445883,173.466713 126.557221,173.546468 126.627854,173.653168 C126.698487,173.759869 126.728415,173.893515 126.700897,174.028816 C126.681924,174.122101 126.637285,174.205951 126.574375,174.272538 C126.511465,174.339125 126.430283,174.388451 126.338226,174.412687 L121.649849,175.646996 C121.157451,175.776629 120.764435,176.147201 120.606104,176.631135 L119.139906,181.112524 C119.096972,181.24375 119.004913,181.345151 118.890781,181.403011 C118.776648,181.460872 118.640443,181.475192 118.509216,181.432259 C118.371846,181.387315 118.260646,181.285125 118.204281,181.152033 L116.324381,176.713109 C116.131542,176.257766 115.726675,175.926719 115.242102,175.828163 L110.403333,174.844018 C110.268032,174.816499 110.156694,174.736744 110.086061,174.630043 C110.015428,174.523343 109.985499,174.389697 110.013018,174.254396 C110.031991,174.161111 110.07663,174.077261 110.13954,174.010674 C110.20245,173.944086 110.283631,173.894761 110.375689,173.870525 L115.064066,172.636216 C115.556464,172.506582 115.94948,172.136011 116.107811,171.652077 L117.574009,167.170688 C117.616943,167.039462 117.709002,166.938061 117.823134,166.8802 Z" id="Star-Copy" stroke="#979797" fill="#FFFFFF"></path>
                <circle id="Oval" stroke="#979797" fill="#FFFFFF" cx="286.481838" cy="179.184836" r="7.36359077"></circle>
                <circle id="Oval" stroke="#979797" fill="#FFFFFF" cx="152.562079" cy="181.457654" r="7.36359077"></circle>
                <path d="M278.17612,195.503488 C282.456327,195.503488 286.331327,197.238385 289.136275,200.043333 C291.941223,202.848281 293.67612,206.723281 293.67612,211.003488 C293.67612,215.283695 291.941223,219.158695 289.136275,221.963643 C286.331327,224.768591 282.456327,226.503488 278.17612,226.503488 C273.895913,226.503488 270.020913,224.768591 267.215965,221.963643 C264.411017,219.158695 262.67612,215.283695 262.67612,211.003488 C262.67612,206.723281 264.411017,202.848281 267.215965,200.043333 C270.020913,197.238385 273.895913,195.503488 278.17612,195.503488 Z M137.478064,195.503488 C141.758271,195.503488 145.633271,197.238385 148.438219,200.043333 C151.243167,202.848281 152.978064,206.723281 152.978064,211.003488 C152.978064,215.283695 151.243167,219.158695 148.438219,221.963643 C145.633271,224.768591 141.758271,226.503488 137.478064,226.503488 C133.197857,226.503488 129.322857,224.768591 126.517909,221.963643 C123.712961,219.158695 121.978064,215.283695 121.978064,211.003488 C121.978064,206.723281 123.712961,202.848281 126.517909,200.043333 C129.322857,197.238385 133.197857,195.503488 137.478064,195.503488 Z" id="Oval-3" stroke="#979797" fill="#FFFFFF"></path>
                <path d="M247.349243,289.003125 L247.362178,304.165057 C247.383184,331.116763 225.551538,352.982467 198.599831,353.003473 L198.561797,353.003488 C166.440057,353.003488 140.400243,326.963673 140.400243,294.841934 L140.400243,289.003488 L247.349243,289.003125 Z" id="Combined-Shape-Copy-2" fill-opacity="0.85" fill="#000000"></path>
                <path d="M189.737445,322.15915 C190.291499,322.627026 190.805185,323.140712 191.273062,323.694767 C197.664571,331.263518 206.438692,336.435277 216.156028,338.361614 L221.053126,339.3324 C225.415587,340.197202 228.251001,344.434737 227.386199,348.797198 C227.055357,350.466115 226.204412,351.987359 224.955438,353.142695 L223.554753,354.438368 C222.361767,355.541915 221.274319,356.735228 220.298497,358.00278 L219.295907,358.003488 C197.044867,358.003488 177.536155,346.262188 166.627374,328.637192 C168.380914,327.130709 170.020399,325.479368 171.527424,323.694767 C176.131934,318.242159 184.284837,317.55464 189.737445,322.15915 Z" id="Combined-Shape-Copy" fill="#E02020" transform="translate(197.084411, 338.556522) rotate(-27.000000) translate(-197.084411, -338.556522) "></path>
                <path d="M217.535209,289.503488 C219.746687,289.503488 220.834951,289.775502 221.839192,290.312576 C222.810028,290.831785 223.571946,291.593703 224.091155,292.564539 C224.628229,293.56878 224.900243,294.657044 224.900243,296.868522 L224.900243,299.138454 C224.900243,301.349933 224.628229,302.438197 224.091155,303.442437 C223.571946,304.413273 222.810028,305.175191 221.839192,305.6944 C220.834951,306.231474 219.746687,306.503488 217.535209,306.503488 L179.265277,306.503488 C177.053798,306.503488 175.965534,306.231474 174.961294,305.6944 C173.990457,305.175191 173.22854,304.413273 172.709331,303.442437 C172.172257,302.438197 171.900243,301.349933 171.900243,299.138454 L171.900243,296.868522 C171.900243,294.657044 172.172257,293.56878 172.709331,292.564539 C173.22854,291.593703 173.990457,290.831785 174.961294,290.312576 C175.965534,289.775502 177.053798,289.503488 179.265277,289.503488 Z" id="Rectangle" stroke="#979797" fill="#FFFFFF"></path>
            </g>
            <g id="Leaf-Copy-2" transform="translate(774.000000, 0.000000)">
                <path d="M171.036166,358.503488 C43.955704,495.499823 -0.165286196,565.166489 38.6731959,567.503488" id="Path-2" stroke="#6E5555" stroke-width="10"></path>
                <path d="M193.401957,30.5914808 C265.746538,72.5565823 314.400243,150.848194 314.400243,240.503488 C314.400243,330.158782 265.746538,408.450394 193.401957,450.415495 C121.054398,408.451118 72.4002428,330.159197 72.4002428,240.503488 C72.4002428,152.110314 119.693748,74.7631296 190.357398,32.3852952 Z" id="Combined-Shape" fill="#6DD400" transform="translate(193.400243, 240.503488) rotate(23.000000) translate(-193.400243, -240.503488) "></path>
                <ellipse id="Eye-Copy" fill-opacity="0.85" fill="#000000" cx="140.050243" cy="196.003488" rx="41.65" ry="45"></ellipse>
                <ellipse id="Eye-Copy-3" fill-opacity="0.85" fill="#000000" cx="200.050243" cy="316.003488" rx="41.65" ry="45"></ellipse>
                <ellipse id="Eye-Copy-2" fill-opacity="0.85" fill="#000000" cx="268.050243" cy="195.003488" rx="41.65" ry="45"></ellipse>
                <path d="M261.17612,180.503488 C265.456327,180.503488 269.331327,182.238385 272.136275,185.043333 C274.941223,187.848281 276.67612,191.723281 276.67612,196.003488 C276.67612,200.283695 274.941223,204.158695 272.136275,206.963643 C269.331327,209.768591 265.456327,211.503488 261.17612,211.503488 C256.895913,211.503488 253.020913,209.768591 250.215965,206.963643 C247.411017,204.158695 245.67612,200.283695 245.67612,196.003488 C245.67612,191.723281 247.411017,187.848281 250.215965,185.043333 C253.020913,182.238385 256.895913,180.503488 261.17612,180.503488 Z M139.478064,180.503488 C143.758271,180.503488 147.633271,182.238385 150.438219,185.043333 C153.243167,187.848281 154.978064,191.723281 154.978064,196.003488 C154.978064,200.283695 153.243167,204.158695 150.438219,206.963643 C147.633271,209.768591 143.758271,211.503488 139.478064,211.503488 C135.197857,211.503488 131.322857,209.768591 128.517909,206.963643 C125.712961,204.158695 123.978064,200.283695 123.978064,196.003488 C123.978064,191.723281 125.712961,187.848281 128.517909,185.043333 C131.322857,182.238385 135.197857,180.503488 139.478064,180.503488 Z" id="Oval-3" stroke="#979797" fill="#FFFFFF"></path>
                <path d="M192.737445,325.15915 C193.291499,325.627026 193.805185,326.140712 194.273062,326.694767 C200.664571,334.263518 209.438692,339.435277 219.156028,341.361614 L224.053126,342.3324 C228.415587,343.197202 231.251001,347.434737 230.386199,351.797198 C230.055357,353.466115 229.204412,354.987359 227.955438,356.142695 L226.554753,357.438368 C225.361767,358.541915 224.274319,359.735228 223.298497,361.00278 L222.295907,361.003488 C200.044867,361.003488 180.536155,349.262188 169.627374,331.637192 C171.380914,330.130709 173.020399,328.479368 174.527424,326.694767 C179.131934,321.242159 187.284837,320.55464 192.737445,325.15915 Z" id="Combined-Shape-Copy" fill="#E02020" transform="translate(200.084411, 341.556522) rotate(-27.000000) translate(-200.084411, -341.556522) "></path>
                <path d="M180.265277,281.003488 L218.535209,281.003488 C220.871533,281.003488 222.015732,281.305171 223.074991,281.871669 C224.134251,282.438167 224.965563,283.26948 225.532061,284.32874 C226.09856,285.387999 226.400243,286.532198 226.400243,288.868522 L226.400243,291.138454 C226.400243,293.474778 226.09856,294.618977 225.532061,295.678237 C224.965563,296.737496 224.134251,297.568809 223.074991,298.135307 C222.015732,298.701805 220.871533,299.003488 218.535209,299.003488 L180.265277,299.003488 C177.928952,299.003488 176.784753,298.701805 175.725494,298.135307 C174.666235,297.568809 173.834922,296.737496 173.268424,295.678237 C172.701926,294.618977 172.400243,293.474778 172.400243,291.138454 L172.400243,288.868522 C172.400243,286.532198 172.701926,285.387999 173.268424,284.32874 C173.834922,283.26948 174.666235,282.438167 175.725494,281.871669 C176.784753,281.305171 177.928952,281.003488 180.265277,281.003488 Z" id="Rectangle" fill="#FFFFFF"></path>
            </g>
            <g id="Leaf-Copy-4" transform="translate(1161.000000, 0.000000)">
                <path d="M171.036166,358.503488 C43.955704,495.499823 -0.165286196,565.166489 38.6731959,567.503488" id="Path-2" stroke="#6E5555" stroke-width="10"></path>
                <path d="M193.401957,30.5914808 C265.746538,72.5565823 314.400243,150.848194 314.400243,240.503488 C314.400243,330.158782 265.746538,408.450394 193.401957,450.415495 C121.054398,408.451118 72.4002428,330.159197 72.4002428,240.503488 C72.4002428,152.110314 119.693748,74.7631296 190.357398,32.3852952 Z" id="Combined-Shape" fill="#6DD400" transform="translate(193.400243, 240.503488) rotate(23.000000) translate(-193.400243, -240.503488) "></path>
                <ellipse id="Eye-Copy-3" fill-opacity="0.85" fill="#000000" cx="200.050243" cy="316.003488" rx="41.65" ry="45"></ellipse>
                <path d="M192.737445,325.15915 C193.291499,325.627026 193.805185,326.140712 194.273062,326.694767 C200.664571,334.263518 209.438692,339.435277 219.156028,341.361614 L224.053126,342.3324 C228.415587,343.197202 231.251001,347.434737 230.386199,351.797198 C230.055357,353.466115 229.204412,354.987359 227.955438,356.142695 L226.554753,357.438368 C225.361767,358.541915 224.274319,359.735228 223.298497,361.00278 L222.295907,361.003488 C200.044867,361.003488 180.536155,349.262188 169.627374,331.637192 C171.380914,330.130709 173.020399,328.479368 174.527424,326.694767 C179.131934,321.242159 187.284837,320.55464 192.737445,325.15915 Z" id="Combined-Shape-Copy" fill="#E02020" transform="translate(200.084411, 341.556522) rotate(-27.000000) translate(-200.084411, -341.556522) "></path>
                <path d="M180.265277,281.003488 L218.535209,281.003488 C220.871533,281.003488 222.015732,281.305171 223.074991,281.871669 C224.134251,282.438167 224.965563,283.26948 225.532061,284.32874 C226.09856,285.387999 226.400243,286.532198 226.400243,288.868522 L226.400243,291.138454 C226.400243,293.474778 226.09856,294.618977 225.532061,295.678237 C224.965563,296.737496 224.134251,297.568809 223.074991,298.135307 C222.015732,298.701805 220.871533,299.003488 218.535209,299.003488 L180.265277,299.003488 C177.928952,299.003488 176.784753,298.701805 175.725494,298.135307 C174.666235,297.568809 173.834922,296.737496 173.268424,295.678237 C172.701926,294.618977 172.400243,293.474778 172.400243,291.138454 L172.400243,288.868522 C172.400243,286.532198 172.701926,285.387999 173.268424,284.32874 C173.834922,283.26948 174.666235,282.438167 175.725494,281.871669 C176.784753,281.305171 177.928952,281.003488 180.265277,281.003488 Z" id="Rectangle" fill="#FFFFFF"></path>
                <path d="M120.265277,191.003488 L158.535209,191.003488 C160.871533,191.003488 162.015732,191.305171 163.074991,191.871669 C164.134251,192.438167 164.965563,193.26948 165.532061,194.32874 C166.09856,195.387999 166.400243,196.532198 166.400243,198.868522 L166.400243,201.138454 C166.400243,203.474778 166.09856,204.618977 165.532061,205.678237 C164.965563,206.737496 164.134251,207.568809 163.074991,208.135307 C162.015732,208.701805 160.871533,209.003488 158.535209,209.003488 L120.265277,209.003488 C117.928952,209.003488 116.784753,208.701805 115.725494,208.135307 C114.666235,207.568809 113.834922,206.737496 113.268424,205.678237 C112.701926,204.618977 112.400243,203.474778 112.400243,201.138454 L112.400243,198.868522 C112.400243,196.532198 112.701926,195.387999 113.268424,194.32874 C113.834922,193.26948 114.666235,192.438167 115.725494,191.871669 C116.784753,191.305171 117.928952,191.003488 120.265277,191.003488 Z" id="Rectangle-Copy" fill="#000000"></path>
                <path d="M250.265277,191.003488 L288.535209,191.003488 C290.871533,191.003488 292.015732,191.305171 293.074991,191.871669 C294.134251,192.438167 294.965563,193.26948 295.532061,194.32874 C296.09856,195.387999 296.400243,196.532198 296.400243,198.868522 L296.400243,201.138454 C296.400243,203.474778 296.09856,204.618977 295.532061,205.678237 C294.965563,206.737496 294.134251,207.568809 293.074991,208.135307 C292.015732,208.701805 290.871533,209.003488 288.535209,209.003488 L250.265277,209.003488 C247.928952,209.003488 246.784753,208.701805 245.725494,208.135307 C244.666235,207.568809 243.834922,206.737496 243.268424,205.678237 C242.701926,204.618977 242.400243,203.474778 242.400243,201.138454 L242.400243,198.868522 C242.400243,196.532198 242.701926,195.387999 243.268424,194.32874 C243.834922,193.26948 244.666235,192.438167 245.725494,191.871669 C246.784753,191.305171 247.928952,191.003488 250.265277,191.003488 Z" id="Rectangle-Copy-2" fill="#000000"></path>
            </g>
            <g id="Leaf-Copy-3" transform="translate(387.000000, 0.000000)">
                <path d="M171.036166,358.503488 C43.955704,495.499823 -0.165286196,565.166489 38.6731959,567.503488" id="Path-2" stroke="#6E5555" stroke-width="10"></path>
                <path d="M193.401957,30.5914808 C265.746538,72.5565823 314.400243,150.848194 314.400243,240.503488 C314.400243,330.158782 265.746538,408.450394 193.401957,450.415495 C121.054398,408.451118 72.4002428,330.159197 72.4002428,240.503488 C72.4002428,152.110314 119.693748,74.7631296 190.357398,32.3852952 Z" id="Combined-Shape" fill="#6DD400" transform="translate(193.400243, 240.503488) rotate(23.000000) translate(-193.400243, -240.503488) "></path>
                <ellipse id="Eye-Copy" fill-opacity="0.85" fill="#000000" cx="140.050243" cy="196.003488" rx="41.65" ry="45"></ellipse>
                <ellipse id="Eye-Copy-2" fill-opacity="0.85" fill="#000000" cx="268.050243" cy="195.003488" rx="41.65" ry="45"></ellipse>
                <circle id="Oval" stroke="#979797" fill="#FFFFFF" cx="286.481838" cy="179.184836" r="7.36359077"></circle>
                <circle id="Oval" stroke="#979797" fill="#FFFFFF" cx="152.562079" cy="181.457654" r="7.36359077"></circle>
                <path d="M168.265277,301.003488 L206.535209,301.003488 C208.871533,301.003488 210.015732,301.305171 211.074991,301.871669 C212.134251,302.438167 212.965563,303.26948 213.532061,304.32874 C214.09856,305.387999 214.400243,306.532198 214.400243,308.868522 L214.400243,311.138454 C214.400243,313.474778 214.09856,314.618977 213.532061,315.678237 C212.965563,316.737496 212.134251,317.568809 211.074991,318.135307 C210.015732,318.701805 208.871533,319.003488 206.535209,319.003488 L168.265277,319.003488 C165.928952,319.003488 164.784753,318.701805 163.725494,318.135307 C162.666235,317.568809 161.834922,316.737496 161.268424,315.678237 C160.701926,314.618977 160.400243,313.474778 160.400243,311.138454 L160.400243,308.868522 C160.400243,306.532198 160.701926,305.387999 161.268424,304.32874 C161.834922,303.26948 162.666235,302.438167 163.725494,301.871669 C164.784753,301.305171 165.928952,301.003488 168.265277,301.003488 Z" id="Rectangle" fill="#FFFFFF"></path>
            </g>
            <text id="Simp-leaf-y-(simplif" font-family="AcademyEngravedLetPlain, Academy Engraved LET" font-size="60" font-weight="normal" fill="#000000">
                <tspan x="38.8837891" y="633">Simp-leaf-y</tspan>
                <tspan x="25.5390625" y="718">(simplifying)</tspan>
            </text>
            <text id="Simp-leaf-y-(repeati" font-family="AcademyEngravedLetPlain, Academy Engraved LET" font-size="60" font-weight="normal" fill="#000000">
                <tspan x="1191.88379" y="633">Simp-leaf-y</tspan>
                <tspan x="1198.88574" y="718">(repeating)</tspan>
            </text>
            <text id="Simp-leaf-y-(explain" font-family="AcademyEngravedLetPlain, Academy Engraved LET" font-size="60" font-weight="normal" fill="#000000">
                <tspan x="797.883789" y="633">Simp-leaf-y</tspan>
                <tspan x="791.321289" y="718">(explaining)</tspan>
            </text>
            <text id="Simp-leaf-y-(confuse" font-family="AcademyEngravedLetPlain, Academy Engraved LET" font-size="60" font-weight="normal" fill="#000000">
                <tspan x="410.883789" y="633">Simp-leaf-y</tspan>
                <tspan x="422.280273" y="718">(confused)</tspan>
            </text>
        </g>
    </g>
</svg>