<?xml version="1.0" encoding="UTF-8"?>
<svg width="672px" height="613px" viewBox="0 0 672 613" version="1.1" xmlns="http://www.w3.org/2000/svg" xmlns:xlink="http://www.w3.org/1999/xlink">
    <title>Group 3</title>
    <g id="Star" stroke="none" stroke-width="1" fill="none" fill-rule="evenodd">
        <g id="Group-3">
            <g id="Group-Copy-2">
                <path d="M328.64889,463.275395 L168.763724,539.952031 C160.298059,544.011937 150.144077,540.440364 146.08417,531.974698 C144.519946,528.712996 144.036933,525.037365 144.705366,521.48227 L174.445026,363.310462 C175.547858,357.444999 173.494092,351.43081 169.034012,347.465008 L44.1975004,236.463182 C37.1811991,230.224445 36.5508593,219.479113 42.7895969,212.462811 C45.500065,209.414525 49.2162232,207.442442 53.2599095,206.906448 L228.658828,183.657187 C234.057023,182.941653 238.785744,179.683433 241.376947,174.894051 L321.048056,27.6360352 C325.515742,19.3783046 335.83173,16.3058663 344.089461,20.7735522 C346.995177,22.345634 349.379862,24.7303188 350.951944,27.6360352 L430.623053,174.894051 C433.214256,179.683433 437.942977,182.941653 443.341172,183.657187 L618.74009,206.906448 C628.047523,208.140155 634.59257,216.685438 633.358863,225.99287 C632.822869,230.036556 630.850786,233.752714 627.8025,236.463182 L502.965988,347.465008 C498.505908,351.43081 496.452142,357.444999 497.554974,363.310462 L527.294634,521.48227 C529.029535,530.709429 522.955862,539.595934 513.728704,541.330836 C510.173609,541.999269 506.497978,541.516256 503.236276,539.952031 L343.35111,463.275395 C338.703765,461.046653 333.296235,461.046653 328.64889,463.275395 Z" id="Star" fill="#F7B500"></path>
                <path d="M258.251923,277.916346 L251.685451,281.01142 C248.382562,282.568221 244.443005,281.152737 242.886205,277.849848 C242.289804,276.584532 242.110097,275.162659 242.372931,273.788747 L242.982236,270.603728 C244.117037,264.671786 242.01941,258.583123 237.471785,254.608854 L234.471781,251.987084 C231.894247,249.734521 231.630807,245.818953 233.88337,243.241419 C234.877208,242.104204 236.252073,241.36899 237.749707,241.173883 L244.173369,240.337031 C249.543196,239.637468 254.258488,236.421469 256.869906,231.677534 L259.107835,227.612084 C261.051175,224.081789 265.488433,222.795308 269.018728,224.738648 C270.22931,225.405043 271.22577,226.401503 271.892165,227.612084 L274.130094,231.677534 C276.741512,236.421469 281.456804,239.637468 286.826631,240.337031 L293.250293,241.173883 C296.644725,241.616098 299.03797,244.726315 298.595755,248.120747 C298.400648,249.618381 297.665435,250.993246 296.528219,251.987084 L293.528215,254.608854 C288.98059,258.583123 286.882963,264.671786 288.017764,270.603728 L288.627069,273.788747 C289.313152,277.375109 286.962012,280.838611 283.37565,281.524694 C282.001737,281.787528 280.579864,281.607821 279.314549,281.01142 L272.748077,277.916346 C268.15818,275.75292 262.84182,275.75292 258.251923,277.916346 Z" id="Star-Copy-6" fill="#FFFFFF"></path>
                <path d="M385.251923,275.916346 L378.685451,279.01142 C375.382562,280.568221 371.443005,279.152737 369.886205,275.849848 C369.289804,274.584532 369.110097,273.162659 369.372931,271.788747 L369.982236,268.603728 C371.117037,262.671786 369.01941,256.583123 364.471785,252.608854 L361.471781,249.987084 C358.894247,247.734521 358.630807,243.818953 360.88337,241.241419 C361.877208,240.104204 363.252073,239.36899 364.749707,239.173883 L371.173369,238.337031 C376.543196,237.637468 381.258488,234.421469 383.869906,229.677534 L386.107835,225.612084 C388.051175,222.081789 392.488433,220.795308 396.018728,222.738648 C397.22931,223.405043 398.22577,224.401503 398.892165,225.612084 L401.130094,229.677534 C403.741512,234.421469 408.456804,237.637468 413.826631,238.337031 L420.250293,239.173883 C423.644725,239.616098 426.03797,242.726315 425.595755,246.120747 C425.400648,247.618381 424.665435,248.993246 423.528219,249.987084 L420.528215,252.608854 C415.98059,256.583123 413.882963,262.671786 415.017764,268.603728 L415.627069,271.788747 C416.313152,275.375109 413.962012,278.838611 410.37565,279.524694 C409.001737,279.787528 407.579864,279.607821 406.314549,279.01142 L399.748077,275.916346 C395.15818,273.75292 389.84182,273.75292 385.251923,275.916346 Z" id="Star-Copy-7" fill="#FFFFFF"></path>
            </g>
            <circle id="Oval" fill="#000000" cx="366.5" cy="377.5" r="71.5"></circle>
        </g>
    </g>
</svg>