<?xml version="1.0" encoding="UTF-8"?>
<svg width="2492px" height="759px" viewBox="0 0 2492 759" version="1.1" xmlns="http://www.w3.org/2000/svg" xmlns:xlink="http://www.w3.org/1999/xlink">
    <title>Group 4</title>
    <g id="Star" stroke="none" stroke-width="1" fill="none" fill-rule="evenodd">
        <g id="Group-4">
            <g id="Star">
                <g id="Group">
                    <path d="M328.64889,463.275395 L168.763724,539.952031 C160.298059,544.011937 150.144077,540.440364 146.08417,531.974698 C144.519946,528.712996 144.036933,525.037365 144.705366,521.48227 L174.445026,363.310462 C175.547858,357.444999 173.494092,351.43081 169.034012,347.465008 L44.1975004,236.463182 C37.1811991,230.224445 36.5508593,219.479113 42.7895969,212.462811 C45.500065,209.414525 49.2162232,207.442442 53.2599095,206.906448 L228.658828,183.657187 C234.057023,182.941653 238.785744,179.683433 241.376947,174.894051 L321.048056,27.6360352 C325.515742,19.3783046 335.83173,16.3058663 344.089461,20.7735522 C346.995177,22.345634 349.379862,24.7303188 350.951944,27.6360352 L430.623053,174.894051 C433.214256,179.683433 437.942977,182.941653 443.341172,183.657187 L618.74009,206.906448 C628.047523,208.140155 634.59257,216.685438 633.358863,225.99287 C632.822869,230.036556 630.850786,233.752714 627.8025,236.463182 L502.965988,347.465008 C498.505908,351.43081 496.452142,357.444999 497.554974,363.310462 L527.294634,521.48227 C529.029535,530.709429 522.955862,539.595934 513.728704,541.330836 C510.173609,541.999269 506.497978,541.516256 503.236276,539.952031 L343.35111,463.275395 C338.703765,461.046653 333.296235,461.046653 328.64889,463.275395 Z" id="Star" fill="#F7B500"></path>
                    <ellipse id="Eye" fill-opacity="0.85" fill="#000000" cx="404.95" cy="269" rx="41.65" ry="45"></ellipse>
                    <ellipse id="Eye" fill-opacity="0.85" fill="#000000" cx="263.65" cy="269" rx="41.65" ry="45"></ellipse>
                </g>
                <path d="M248.742206,256.314643 L243.903437,255.330498 C243.362233,255.220424 243.012733,254.692458 243.122807,254.151254 C243.198699,253.778115 243.479918,253.480457 243.848149,253.383513 L248.536526,252.149204 C248.864791,252.062782 249.126802,251.815734 249.232356,251.493111 L250.698554,247.011722 C250.870289,246.486817 251.435028,246.200517 251.959933,246.372253 C252.234673,246.462141 252.457075,246.66652 252.569804,246.932704 L254.449704,251.371628 C254.578264,251.67519 254.848175,251.895888 255.171224,251.961592 L260.009993,252.945737 C260.551197,253.055812 260.900697,253.583777 260.790623,254.124982 C260.714731,254.498121 260.433512,254.795778 260.06528,254.892722 L255.376904,256.127031 C255.048638,256.213454 254.786628,256.460501 254.681074,256.783124 L253.214876,261.264513 C253.04314,261.789418 252.478401,262.075719 251.953496,261.903983 C251.678756,261.814095 251.456355,261.609715 251.343625,261.343531 L249.463725,256.904607 C249.335166,256.601045 249.065254,256.380347 248.742206,256.314643 Z" id="Star-Copy" fill="#FFFFFF"></path>
                <path d="M398.075133,255.981513 L393.236364,254.997368 C392.695159,254.887294 392.345659,254.359328 392.455734,253.818124 C392.531625,253.444985 392.812845,253.147327 393.181076,253.050383 L397.869453,251.816074 C398.197718,251.729651 398.459729,251.482604 398.565283,251.159981 L400.03148,246.678592 C400.203216,246.153687 400.767955,245.867387 401.29286,246.039123 C401.5676,246.129011 401.790001,246.33339 401.902731,246.599574 L403.782631,251.038498 C403.911191,251.34206 404.181102,251.562758 404.50415,251.628462 L409.342919,252.612607 C409.884124,252.722681 410.233624,253.250647 410.123549,253.791851 C410.047658,254.164991 409.766438,254.462648 409.398207,254.559592 L404.70983,255.793901 C404.381565,255.880324 404.119555,256.127371 404.014,256.449994 L402.547803,260.931383 C402.376067,261.456288 401.811328,261.742588 401.286423,261.570853 C401.011683,261.480965 400.789282,261.276585 400.676552,261.010401 L398.796652,256.571477 C398.668092,256.267915 398.398181,256.047217 398.075133,255.981513 Z" id="Star-Copy-2" fill="#FFFFFF"></path>
                <circle id="Oval" stroke="#979797" fill="#FFFFFF" cx="401.275877" cy="287.5" r="18"></circle>
                <circle id="Oval" stroke="#979797" fill="#FFFFFF" cx="428.081596" cy="261.181348" r="7.36359077"></circle>
                <circle id="Oval" stroke="#979797" fill="#FFFFFF" cx="286.161836" cy="261.454166" r="7.36359077"></circle>
                <circle id="Oval" stroke="#979797" fill="#FFFFFF" cx="259.5" cy="287.5" r="18"></circle>
                <path d="M422.926322,353.5 C422.966971,392.947689 391.021254,424.959313 351.573564,424.999962 L324.5,425 C285.01164,425 253,392.98836 253,353.5 C253,351.648941 253.070341,349.81431 253.208497,347.998636 L422.712384,347.999115 C422.852261,349.814594 422.924415,351.649062 422.926322,353.5 Z" id="Combined-Shape" fill-opacity="0.85" fill="#000000"></path>
                <path d="M305.660333,383.082676 L310.388731,387.334725 C317.519657,393.747265 326.375559,397.92631 335.858846,399.353913 L355.250082,402.273046 C360.170308,403.01373 363.558496,407.602805 362.817811,412.523031 C362.451136,414.958779 361.10315,417.138178 359.087551,418.554045 L354.410557,421.839422 C353.053308,422.792828 351.795409,423.851655 350.644121,425.000004 L326.314163,425 C300.361472,425 277.516003,411.696406 264.225285,391.53675 C266.110309,390.267542 267.909887,388.864706 269.611269,387.334725 L274.339667,383.082676 C283.244416,375.075011 296.755584,375.075011 305.660333,383.082676 Z" id="Combined-Shape" fill="#E02020"></path>
            </g>
            <g id="Group-2" transform="translate(614.000000, 0.000000)">
                <g id="Star-Copy-3">
                    <g id="Group-Copy">
                        <path d="M328.64889,463.275395 L168.763724,539.952031 C160.298059,544.011937 150.144077,540.440364 146.08417,531.974698 C144.519946,528.712996 144.036933,525.037365 144.705366,521.48227 L174.445026,363.310462 C175.547858,357.444999 173.494092,351.43081 169.034012,347.465008 L44.1975004,236.463182 C37.1811991,230.224445 36.5508593,219.479113 42.7895969,212.462811 C45.500065,209.414525 49.2162232,207.442442 53.2599095,206.906448 L228.658828,183.657187 C234.057023,182.941653 238.785744,179.683433 241.376947,174.894051 L321.048056,27.6360352 C325.515742,19.3783046 335.83173,16.3058663 344.089461,20.7735522 C346.995177,22.345634 349.379862,24.7303188 350.951944,27.6360352 L430.623053,174.894051 C433.214256,179.683433 437.942977,182.941653 443.341172,183.657187 L618.74009,206.906448 C628.047523,208.140155 634.59257,216.685438 633.358863,225.99287 C632.822869,230.036556 630.850786,233.752714 627.8025,236.463182 L502.965988,347.465008 C498.505908,351.43081 496.452142,357.444999 497.554974,363.310462 L527.294634,521.48227 C529.029535,530.709429 522.955862,539.595934 513.728704,541.330836 C510.173609,541.999269 506.497978,541.516256 503.236276,539.952031 L343.35111,463.275395 C338.703765,461.046653 333.296235,461.046653 328.64889,463.275395 Z" id="Star" fill="#F7B500"></path>
                        <ellipse id="Eye" fill-opacity="0.85" fill="#000000" cx="404.95" cy="269" rx="41.65" ry="45"></ellipse>
                        <ellipse id="Eye" fill-opacity="0.85" fill="#000000" cx="263.65" cy="269" rx="41.65" ry="45"></ellipse>
                    </g>
                    <circle id="Oval" stroke="#979797" fill="#FFFFFF" cx="406.275877" cy="285.5" r="18"></circle>
                    <circle id="Oval" stroke="#979797" fill="#FFFFFF" cx="262.5" cy="284.5" r="18"></circle>
                </g>
                <rect id="Rectangle" fill-opacity="0.85" fill="#000000" x="265" y="374" width="143" height="25"></rect>
            </g>
            <g id="Group-3" transform="translate(1218.000000, 0.000000)">
                <g id="Group-Copy-2">
                    <path d="M328.64889,463.275395 L168.763724,539.952031 C160.298059,544.011937 150.144077,540.440364 146.08417,531.974698 C144.519946,528.712996 144.036933,525.037365 144.705366,521.48227 L174.445026,363.310462 C175.547858,357.444999 173.494092,351.43081 169.034012,347.465008 L44.1975004,236.463182 C37.1811991,230.224445 36.5508593,219.479113 42.7895969,212.462811 C45.500065,209.414525 49.2162232,207.442442 53.2599095,206.906448 L228.658828,183.657187 C234.057023,182.941653 238.785744,179.683433 241.376947,174.894051 L321.048056,27.6360352 C325.515742,19.3783046 335.83173,16.3058663 344.089461,20.7735522 C346.995177,22.345634 349.379862,24.7303188 350.951944,27.6360352 L430.623053,174.894051 C433.214256,179.683433 437.942977,182.941653 443.341172,183.657187 L618.74009,206.906448 C628.047523,208.140155 634.59257,216.685438 633.358863,225.99287 C632.822869,230.036556 630.850786,233.752714 627.8025,236.463182 L502.965988,347.465008 C498.505908,351.43081 496.452142,357.444999 497.554974,363.310462 L527.294634,521.48227 C529.029535,530.709429 522.955862,539.595934 513.728704,541.330836 C510.173609,541.999269 506.497978,541.516256 503.236276,539.952031 L343.35111,463.275395 C338.703765,461.046653 333.296235,461.046653 328.64889,463.275395 Z" id="Star" fill="#F7B500"></path>
                    <path d="M258.251923,277.916346 L251.685451,281.01142 C248.382562,282.568221 244.443005,281.152737 242.886205,277.849848 C242.289804,276.584532 242.110097,275.162659 242.372931,273.788747 L242.982236,270.603728 C244.117037,264.671786 242.01941,258.583123 237.471785,254.608854 L234.471781,251.987084 C231.894247,249.734521 231.630807,245.818953 233.88337,243.241419 C234.877208,242.104204 236.252073,241.36899 237.749707,241.173883 L244.173369,240.337031 C249.543196,239.637468 254.258488,236.421469 256.869906,231.677534 L259.107835,227.612084 C261.051175,224.081789 265.488433,222.795308 269.018728,224.738648 C270.22931,225.405043 271.22577,226.401503 271.892165,227.612084 L274.130094,231.677534 C276.741512,236.421469 281.456804,239.637468 286.826631,240.337031 L293.250293,241.173883 C296.644725,241.616098 299.03797,244.726315 298.595755,248.120747 C298.400648,249.618381 297.665435,250.993246 296.528219,251.987084 L293.528215,254.608854 C288.98059,258.583123 286.882963,264.671786 288.017764,270.603728 L288.627069,273.788747 C289.313152,277.375109 286.962012,280.838611 283.37565,281.524694 C282.001737,281.787528 280.579864,281.607821 279.314549,281.01142 L272.748077,277.916346 C268.15818,275.75292 262.84182,275.75292 258.251923,277.916346 Z" id="Star-Copy-6" fill="#FFFFFF"></path>
                    <path d="M385.251923,275.916346 L378.685451,279.01142 C375.382562,280.568221 371.443005,279.152737 369.886205,275.849848 C369.289804,274.584532 369.110097,273.162659 369.372931,271.788747 L369.982236,268.603728 C371.117037,262.671786 369.01941,256.583123 364.471785,252.608854 L361.471781,249.987084 C358.894247,247.734521 358.630807,243.818953 360.88337,241.241419 C361.877208,240.104204 363.252073,239.36899 364.749707,239.173883 L371.173369,238.337031 C376.543196,237.637468 381.258488,234.421469 383.869906,229.677534 L386.107835,225.612084 C388.051175,222.081789 392.488433,220.795308 396.018728,222.738648 C397.22931,223.405043 398.22577,224.401503 398.892165,225.612084 L401.130094,229.677534 C403.741512,234.421469 408.456804,237.637468 413.826631,238.337031 L420.250293,239.173883 C423.644725,239.616098 426.03797,242.726315 425.595755,246.120747 C425.400648,247.618381 424.665435,248.993246 423.528219,249.987084 L420.528215,252.608854 C415.98059,256.583123 413.882963,262.671786 415.017764,268.603728 L415.627069,271.788747 C416.313152,275.375109 413.962012,278.838611 410.37565,279.524694 C409.001737,279.787528 407.579864,279.607821 406.314549,279.01142 L399.748077,275.916346 C395.15818,273.75292 389.84182,273.75292 385.251923,275.916346 Z" id="Star-Copy-7" fill="#FFFFFF"></path>
                </g>
                <circle id="Oval" fill="#000000" cx="366.5" cy="377.5" r="71.5"></circle>
            </g>
            <g id="Group-5" transform="translate(1820.000000, 0.000000)">
                <g id="Star-Copy-9">
                    <g id="Group-Copy-5" fill="#F7B500">
                        <path d="M328.64889,463.275395 L168.763724,539.952031 C160.298059,544.011937 150.144077,540.440364 146.08417,531.974698 C144.519946,528.712996 144.036933,525.037365 144.705366,521.48227 L174.445026,363.310462 C175.547858,357.444999 173.494092,351.43081 169.034012,347.465008 L44.1975004,236.463182 C37.1811991,230.224445 36.5508593,219.479113 42.7895969,212.462811 C45.500065,209.414525 49.2162232,207.442442 53.2599095,206.906448 L228.658828,183.657187 C234.057023,182.941653 238.785744,179.683433 241.376947,174.894051 L321.048056,27.6360352 C325.515742,19.3783046 335.83173,16.3058663 344.089461,20.7735522 C346.995177,22.345634 349.379862,24.7303188 350.951944,27.6360352 L430.623053,174.894051 C433.214256,179.683433 437.942977,182.941653 443.341172,183.657187 L618.74009,206.906448 C628.047523,208.140155 634.59257,216.685438 633.358863,225.99287 C632.822869,230.036556 630.850786,233.752714 627.8025,236.463182 L502.965988,347.465008 C498.505908,351.43081 496.452142,357.444999 497.554974,363.310462 L527.294634,521.48227 C529.029535,530.709429 522.955862,539.595934 513.728704,541.330836 C510.173609,541.999269 506.497978,541.516256 503.236276,539.952031 L343.35111,463.275395 C338.703765,461.046653 333.296235,461.046653 328.64889,463.275395 Z" id="Star"></path>
                    </g>
                    <path d="M248.157324,287.008741 L236.738972,292.029418 C232.722541,293.795452 228.034928,291.971145 226.268894,287.954715 C225.60649,286.448233 225.428278,284.773218 225.758878,283.161086 L226.777661,278.19312 C228.049027,271.993463 225.771293,265.60077 220.866136,261.601827 L215.768919,257.446305 C212.69448,254.939859 212.234031,250.415659 214.740476,247.341221 C215.913458,245.902427 217.597961,244.973673 219.440746,244.749717 L230.508839,243.404604 C235.758091,242.766658 240.411579,239.722382 243.098909,235.168277 L246.917953,228.696305 C249.551872,224.232713 255.305541,222.749471 259.769132,225.38339 C261.135777,226.189832 262.275605,227.32966 263.082047,228.696305 L266.901091,235.168277 C269.588421,239.722382 274.241909,242.766658 279.491161,243.404604 L290.559254,244.749717 C294.496947,245.228268 297.301136,248.808341 296.822585,252.746034 C296.59863,254.58882 295.669876,256.273323 294.231081,257.446305 L289.133864,261.601827 C284.228707,265.60077 281.950973,271.993463 283.222339,278.19312 L284.241122,283.161086 C285.122535,287.45919 282.352761,291.658019 278.054657,292.539433 C276.442525,292.870034 274.76751,292.691821 273.261028,292.029418 L261.842676,287.008741 C257.48234,285.091491 252.51766,285.091491 248.157324,287.008741 Z" id="Star-Copy-6" fill="#FFFFFF"></path>
                    <path d="M384.157324,287.008741 L372.738972,292.029418 C368.722541,293.795452 364.034928,291.971145 362.268894,287.954715 C361.60649,286.448233 361.428278,284.773218 361.758878,283.161086 L362.777661,278.19312 C364.049027,271.993463 361.771293,265.60077 356.866136,261.601827 L351.768919,257.446305 C348.69448,254.939859 348.234031,250.415659 350.740476,247.341221 C351.913458,245.902427 353.597961,244.973673 355.440746,244.749717 L366.508839,243.404604 C371.758091,242.766658 376.411579,239.722382 379.098909,235.168277 L382.917953,228.696305 C385.551872,224.232713 391.305541,222.749471 395.769132,225.38339 C397.135777,226.189832 398.275605,227.32966 399.082047,228.696305 L402.901091,235.168277 C405.588421,239.722382 410.241909,242.766658 415.491161,243.404604 L426.559254,244.749717 C430.496947,245.228268 433.301136,248.808341 432.822585,252.746034 C432.59863,254.58882 431.669876,256.273323 430.231081,257.446305 L425.133864,261.601827 C420.228707,265.60077 417.950973,271.993463 419.222339,278.19312 L420.241122,283.161086 C421.122535,287.45919 418.352761,291.658019 414.054657,292.539433 C412.442525,292.870034 410.76751,292.691821 409.261028,292.029418 L397.842676,287.008741 C393.48234,285.091491 388.51766,285.091491 384.157324,287.008741 Z" id="Star-Copy-7" fill="#FFFFFF"></path>
                </g>
                <path d="M407.926322,351.5 C407.966971,390.947689 376.021254,422.959313 336.573564,422.999962 L309.5,423 C270.01164,423 238,390.98836 238,351.5 C238,349.648941 238.070341,347.81431 238.208497,345.998636 L407.712384,345.999115 C407.852261,347.814594 407.924415,349.649062 407.926322,351.5 Z" id="Combined-Shape" fill-opacity="0.85" fill="#000000"></path>
                <circle id="Oval" fill="#000000" cx="389.275877" cy="263.5" r="18.5"></circle>
                <circle id="Oval-Copy" fill="#000000" cx="256.275877" cy="260.5" r="18.5"></circle>
                <path d="M332.778592,383.431628 L336.636889,386.688092 C343.680965,392.633405 352.25917,396.471254 361.386205,397.760823 L379.520521,400.323041 C383.784287,400.925473 386.752385,404.870307 386.149953,409.134073 C385.837088,411.348398 384.588477,413.321783 382.721426,414.552734 L377.813652,417.788443 C376.899117,418.391399 376.034691,419.050137 375.22338,419.758274 L348.031809,419.759593 C325.473579,419.759593 305.595754,408.283418 293.918182,390.850919 C295.917554,389.60678 297.830655,388.217134 299.642282,386.688092 L303.500578,383.431628 C311.955445,376.295585 324.323725,376.295585 332.778592,383.431628 Z" id="Combined-Shape" fill="#E02020" transform="translate(340.072560, 398.919594) rotate(-27.000000) translate(-340.072560, -398.919594) "></path>
            </g>
            <text id="Star-ry-(excited)" font-family="AcademyEngravedLetPlain, Academy Engraved LET" font-size="60" font-weight="normal" fill="#000000">
                <tspan x="254.876953" y="644">Star-ry</tspan>
                <tspan x="232.362305" y="729">(excited)</tspan>
            </text>
            <text id="Star-ry-(explaining)" font-family="AcademyEngravedLetPlain, Academy Engraved LET" font-size="60" font-weight="normal" fill="#000000">
                <tspan x="2057.87695" y="644">Star-ry</tspan>
                <tspan x="1993.32129" y="729">(explaining)</tspan>
            </text>
            <text id="Star-ry-(enlightened" font-family="AcademyEngravedLetPlain, Academy Engraved LET" font-size="60" font-weight="normal" fill="#000000">
                <tspan x="1454.87695" y="644">Star-ry</tspan>
                <tspan x="1373.06543" y="729">(enlightened)</tspan>
            </text>
            <text id="Star-ry-(confused)" font-family="AcademyEngravedLetPlain, Academy Engraved LET" font-size="60" font-weight="normal" fill="#000000">
                <tspan x="868.876953" y="644">Star-ry</tspan>
                <tspan x="822.280273" y="729">(confused)</tspan>
            </text>
        </g>
    </g>
</svg>