<?xml version="1.0" encoding="UTF-8"?>
<svg width="672px" height="613px" viewBox="0 0 672 613" version="1.1" xmlns="http://www.w3.org/2000/svg" xmlns:xlink="http://www.w3.org/1999/xlink">
    <title>Group 5</title>
    <g id="Star" stroke="none" stroke-width="1" fill="none" fill-rule="evenodd">
        <g id="Group-5">
            <g id="Star-Copy-9">
                <g id="Group-Copy-5" fill="#F7B500">
                    <path d="M328.64889,463.275395 L168.763724,539.952031 C160.298059,544.011937 150.144077,540.440364 146.08417,531.974698 C144.519946,528.712996 144.036933,525.037365 144.705366,521.48227 L174.445026,363.310462 C175.547858,357.444999 173.494092,351.43081 169.034012,347.465008 L44.1975004,236.463182 C37.1811991,230.224445 36.5508593,219.479113 42.7895969,212.462811 C45.500065,209.414525 49.2162232,207.442442 53.2599095,206.906448 L228.658828,183.657187 C234.057023,182.941653 238.785744,179.683433 241.376947,174.894051 L321.048056,27.6360352 C325.515742,19.3783046 335.83173,16.3058663 344.089461,20.7735522 C346.995177,22.345634 349.379862,24.7303188 350.951944,27.6360352 L430.623053,174.894051 C433.214256,179.683433 437.942977,182.941653 443.341172,183.657187 L618.74009,206.906448 C628.047523,208.140155 634.59257,216.685438 633.358863,225.99287 C632.822869,230.036556 630.850786,233.752714 627.8025,236.463182 L502.965988,347.465008 C498.505908,351.43081 496.452142,357.444999 497.554974,363.310462 L527.294634,521.48227 C529.029535,530.709429 522.955862,539.595934 513.728704,541.330836 C510.173609,541.999269 506.497978,541.516256 503.236276,539.952031 L343.35111,463.275395 C338.703765,461.046653 333.296235,461.046653 328.64889,463.275395 Z" id="Star"></path>
                </g>
                <path d="M248.157324,287.008741 L236.738972,292.029418 C232.722541,293.795452 228.034928,291.971145 226.268894,287.954715 C225.60649,286.448233 225.428278,284.773218 225.758878,283.161086 L226.777661,278.19312 C228.049027,271.993463 225.771293,265.60077 220.866136,261.601827 L215.768919,257.446305 C212.69448,254.939859 212.234031,250.415659 214.740476,247.341221 C215.913458,245.902427 217.597961,244.973673 219.440746,244.749717 L230.508839,243.404604 C235.758091,242.766658 240.411579,239.722382 243.098909,235.168277 L246.917953,228.696305 C249.551872,224.232713 255.305541,222.749471 259.769132,225.38339 C261.135777,226.189832 262.275605,227.32966 263.082047,228.696305 L266.901091,235.168277 C269.588421,239.722382 274.241909,242.766658 279.491161,243.404604 L290.559254,244.749717 C294.496947,245.228268 297.301136,248.808341 296.822585,252.746034 C296.59863,254.58882 295.669876,256.273323 294.231081,257.446305 L289.133864,261.601827 C284.228707,265.60077 281.950973,271.993463 283.222339,278.19312 L284.241122,283.161086 C285.122535,287.45919 282.352761,291.658019 278.054657,292.539433 C276.442525,292.870034 274.76751,292.691821 273.261028,292.029418 L261.842676,287.008741 C257.48234,285.091491 252.51766,285.091491 248.157324,287.008741 Z" id="Star-Copy-6" fill="#FFFFFF"></path>
                <path d="M384.157324,287.008741 L372.738972,292.029418 C368.722541,293.795452 364.034928,291.971145 362.268894,287.954715 C361.60649,286.448233 361.428278,284.773218 361.758878,283.161086 L362.777661,278.19312 C364.049027,271.993463 361.771293,265.60077 356.866136,261.601827 L351.768919,257.446305 C348.69448,254.939859 348.234031,250.415659 350.740476,247.341221 C351.913458,245.902427 353.597961,244.973673 355.440746,244.749717 L366.508839,243.404604 C371.758091,242.766658 376.411579,239.722382 379.098909,235.168277 L382.917953,228.696305 C385.551872,224.232713 391.305541,222.749471 395.769132,225.38339 C397.135777,226.189832 398.275605,227.32966 399.082047,228.696305 L402.901091,235.168277 C405.588421,239.722382 410.241909,242.766658 415.491161,243.404604 L426.559254,244.749717 C430.496947,245.228268 433.301136,248.808341 432.822585,252.746034 C432.59863,254.58882 431.669876,256.273323 430.231081,257.446305 L425.133864,261.601827 C420.228707,265.60077 417.950973,271.993463 419.222339,278.19312 L420.241122,283.161086 C421.122535,287.45919 418.352761,291.658019 414.054657,292.539433 C412.442525,292.870034 410.76751,292.691821 409.261028,292.029418 L397.842676,287.008741 C393.48234,285.091491 388.51766,285.091491 384.157324,287.008741 Z" id="Star-Copy-7" fill="#FFFFFF"></path>
            </g>
            <path d="M407.926322,351.5 C407.966971,390.947689 376.021254,422.959313 336.573564,422.999962 L309.5,423 C270.01164,423 238,390.98836 238,351.5 C238,349.648941 238.070341,347.81431 238.208497,345.998636 L407.712384,345.999115 C407.852261,347.814594 407.924415,349.649062 407.926322,351.5 Z" id="Combined-Shape" fill-opacity="0.85" fill="#000000"></path>
            <circle id="Oval" fill="#000000" cx="389.275877" cy="263.5" r="18.5"></circle>
            <circle id="Oval-Copy" fill="#000000" cx="256.275877" cy="260.5" r="18.5"></circle>
            <path d="M332.778592,383.431628 L336.636889,386.688092 C343.680965,392.633405 352.25917,396.471254 361.386205,397.760823 L379.520521,400.323041 C383.784287,400.925473 386.752385,404.870307 386.149953,409.134073 C385.837088,411.348398 384.588477,413.321783 382.721426,414.552734 L377.813652,417.788443 C376.899117,418.391399 376.034691,419.050137 375.22338,419.758274 L348.031809,419.759593 C325.473579,419.759593 305.595754,408.283418 293.918182,390.850919 C295.917554,389.60678 297.830655,388.217134 299.642282,386.688092 L303.500578,383.431628 C311.955445,376.295585 324.323725,376.295585 332.778592,383.431628 Z" id="Combined-Shape" fill="#E02020" transform="translate(340.072560, 398.919594) rotate(-27.000000) translate(-340.072560, -398.919594) "></path>
        </g>
    </g>
</svg>