<?xml version="1.0" encoding="UTF-8"?>
<svg width="672px" height="613px" viewBox="0 0 672 613" version="1.1" xmlns="http://www.w3.org/2000/svg" xmlns:xlink="http://www.w3.org/1999/xlink">
    <title>Star</title>
    <g id="Star" stroke="none" stroke-width="1" fill="none" fill-rule="evenodd">
        <g>
            <g id="Group">
                <path d="M328.64889,463.275395 L168.763724,539.952031 C160.298059,544.011937 150.144077,540.440364 146.08417,531.974698 C144.519946,528.712996 144.036933,525.037365 144.705366,521.48227 L174.445026,363.310462 C175.547858,357.444999 173.494092,351.43081 169.034012,347.465008 L44.1975004,236.463182 C37.1811991,230.224445 36.5508593,219.479113 42.7895969,212.462811 C45.500065,209.414525 49.2162232,207.442442 53.2599095,206.906448 L228.658828,183.657187 C234.057023,182.941653 238.785744,179.683433 241.376947,174.894051 L321.048056,27.6360352 C325.515742,19.3783046 335.83173,16.3058663 344.089461,20.7735522 C346.995177,22.345634 349.379862,24.7303188 350.951944,27.6360352 L430.623053,174.894051 C433.214256,179.683433 437.942977,182.941653 443.341172,183.657187 L618.74009,206.906448 C628.047523,208.140155 634.59257,216.685438 633.358863,225.99287 C632.822869,230.036556 630.850786,233.752714 627.8025,236.463182 L502.965988,347.465008 C498.505908,351.43081 496.452142,357.444999 497.554974,363.310462 L527.294634,521.48227 C529.029535,530.709429 522.955862,539.595934 513.728704,541.330836 C510.173609,541.999269 506.497978,541.516256 503.236276,539.952031 L343.35111,463.275395 C338.703765,461.046653 333.296235,461.046653 328.64889,463.275395 Z" id="Star" fill="#F7B500"></path>
                <ellipse id="Eye" fill-opacity="0.85" fill="#000000" cx="404.95" cy="269" rx="41.65" ry="45"></ellipse>
                <ellipse id="Eye" fill-opacity="0.85" fill="#000000" cx="263.65" cy="269" rx="41.65" ry="45"></ellipse>
            </g>
            <path d="M248.742206,256.314643 L243.903437,255.330498 C243.362233,255.220424 243.012733,254.692458 243.122807,254.151254 C243.198699,253.778115 243.479918,253.480457 243.848149,253.383513 L248.536526,252.149204 C248.864791,252.062782 249.126802,251.815734 249.232356,251.493111 L250.698554,247.011722 C250.870289,246.486817 251.435028,246.200517 251.959933,246.372253 C252.234673,246.462141 252.457075,246.66652 252.569804,246.932704 L254.449704,251.371628 C254.578264,251.67519 254.848175,251.895888 255.171224,251.961592 L260.009993,252.945737 C260.551197,253.055812 260.900697,253.583777 260.790623,254.124982 C260.714731,254.498121 260.433512,254.795778 260.06528,254.892722 L255.376904,256.127031 C255.048638,256.213454 254.786628,256.460501 254.681074,256.783124 L253.214876,261.264513 C253.04314,261.789418 252.478401,262.075719 251.953496,261.903983 C251.678756,261.814095 251.456355,261.609715 251.343625,261.343531 L249.463725,256.904607 C249.335166,256.601045 249.065254,256.380347 248.742206,256.314643 Z" id="Star-Copy" fill="#FFFFFF"></path>
            <path d="M398.075133,255.981513 L393.236364,254.997368 C392.695159,254.887294 392.345659,254.359328 392.455734,253.818124 C392.531625,253.444985 392.812845,253.147327 393.181076,253.050383 L397.869453,251.816074 C398.197718,251.729651 398.459729,251.482604 398.565283,251.159981 L400.03148,246.678592 C400.203216,246.153687 400.767955,245.867387 401.29286,246.039123 C401.5676,246.129011 401.790001,246.33339 401.902731,246.599574 L403.782631,251.038498 C403.911191,251.34206 404.181102,251.562758 404.50415,251.628462 L409.342919,252.612607 C409.884124,252.722681 410.233624,253.250647 410.123549,253.791851 C410.047658,254.164991 409.766438,254.462648 409.398207,254.559592 L404.70983,255.793901 C404.381565,255.880324 404.119555,256.127371 404.014,256.449994 L402.547803,260.931383 C402.376067,261.456288 401.811328,261.742588 401.286423,261.570853 C401.011683,261.480965 400.789282,261.276585 400.676552,261.010401 L398.796652,256.571477 C398.668092,256.267915 398.398181,256.047217 398.075133,255.981513 Z" id="Star-Copy-2" fill="#FFFFFF"></path>
            <circle id="Oval" stroke="#979797" fill="#FFFFFF" cx="401.275877" cy="287.5" r="18"></circle>
            <circle id="Oval" stroke="#979797" fill="#FFFFFF" cx="428.081596" cy="261.181348" r="7.36359077"></circle>
            <circle id="Oval" stroke="#979797" fill="#FFFFFF" cx="286.161836" cy="261.454166" r="7.36359077"></circle>
            <circle id="Oval" stroke="#979797" fill="#FFFFFF" cx="259.5" cy="287.5" r="18"></circle>
            <path d="M422.926322,353.5 C422.966971,392.947689 391.021254,424.959313 351.573564,424.999962 L324.5,425 C285.01164,425 253,392.98836 253,353.5 C253,351.648941 253.070341,349.81431 253.208497,347.998636 L422.712384,347.999115 C422.852261,349.814594 422.924415,351.649062 422.926322,353.5 Z" id="Combined-Shape" fill-opacity="0.85" fill="#000000"></path>
            <path d="M305.660333,383.082676 L310.388731,387.334725 C317.519657,393.747265 326.375559,397.92631 335.858846,399.353913 L355.250082,402.273046 C360.170308,403.01373 363.558496,407.602805 362.817811,412.523031 C362.451136,414.958779 361.10315,417.138178 359.087551,418.554045 L354.410557,421.839422 C353.053308,422.792828 351.795409,423.851655 350.644121,425.000004 L326.314163,425 C300.361472,425 277.516003,411.696406 264.225285,391.53675 C266.110309,390.267542 267.909887,388.864706 269.611269,387.334725 L274.339667,383.082676 C283.244416,375.075011 296.755584,375.075011 305.660333,383.082676 Z" id="Combined-Shape" fill="#E02020"></path>
        </g>
    </g>
</svg>