<?xml version="1.0" encoding="UTF-8"?>
<svg width="672px" height="613px" viewBox="0 0 672 613" version="1.1" xmlns="http://www.w3.org/2000/svg" xmlns:xlink="http://www.w3.org/1999/xlink">
    <title>Group 2</title>
    <g id="Star" stroke="none" stroke-width="1" fill="none" fill-rule="evenodd">
        <g id="Group-2">
            <g id="Star-Copy-3">
                <g id="Group-Copy">
                    <path d="M328.64889,463.275395 L168.763724,539.952031 C160.298059,544.011937 150.144077,540.440364 146.08417,531.974698 C144.519946,528.712996 144.036933,525.037365 144.705366,521.48227 L174.445026,363.310462 C175.547858,357.444999 173.494092,351.43081 169.034012,347.465008 L44.1975004,236.463182 C37.1811991,230.224445 36.5508593,219.479113 42.7895969,212.462811 C45.500065,209.414525 49.2162232,207.442442 53.2599095,206.906448 L228.658828,183.657187 C234.057023,182.941653 238.785744,179.683433 241.376947,174.894051 L321.048056,27.6360352 C325.515742,19.3783046 335.83173,16.3058663 344.089461,20.7735522 C346.995177,22.345634 349.379862,24.7303188 350.951944,27.6360352 L430.623053,174.894051 C433.214256,179.683433 437.942977,182.941653 443.341172,183.657187 L618.74009,206.906448 C628.047523,208.140155 634.59257,216.685438 633.358863,225.99287 C632.822869,230.036556 630.850786,233.752714 627.8025,236.463182 L502.965988,347.465008 C498.505908,351.43081 496.452142,357.444999 497.554974,363.310462 L527.294634,521.48227 C529.029535,530.709429 522.955862,539.595934 513.728704,541.330836 C510.173609,541.999269 506.497978,541.516256 503.236276,539.952031 L343.35111,463.275395 C338.703765,461.046653 333.296235,461.046653 328.64889,463.275395 Z" id="Star" fill="#F7B500"></path>
                    <ellipse id="Eye" fill-opacity="0.85" fill="#000000" cx="404.95" cy="269" rx="41.65" ry="45"></ellipse>
                    <ellipse id="Eye" fill-opacity="0.85" fill="#000000" cx="263.65" cy="269" rx="41.65" ry="45"></ellipse>
                </g>
                <circle id="Oval" stroke="#979797" fill="#FFFFFF" cx="406.275877" cy="285.5" r="18"></circle>
                <circle id="Oval" stroke="#979797" fill="#FFFFFF" cx="262.5" cy="284.5" r="18"></circle>
            </g>
            <rect id="Rectangle" fill-opacity="0.85" fill="#000000" x="265" y="374" width="143" height="25"></rect>
        </g>
    </g>
</svg>