<?xml version="1.0" encoding="UTF-8"?>
<svg width="1012px" height="547px" viewBox="0 0 1012 547" version="1.1" xmlns="http://www.w3.org/2000/svg" xmlns:xlink="http://www.w3.org/1999/xlink">
    <title>Group 4</title>
    <g id="Twins" stroke="none" stroke-width="1" fill="none" fill-rule="evenodd">
        <g id="Group-4" transform="translate(0.000000, -0.000000)">
            <g id="Group-3">
                <g id="Group-Copy">
                    <g id="Flower2" transform="translate(483.000000, 5.000000)">
                        <path d="M293.529052,20.0294774 C340.860931,47.4461802 372.69949,98.6444153 372.69949,157.278944 C372.69949,215.930056 340.84292,267.140666 293.48889,294.551667 C246.157087,267.136264 214.318528,215.938029 214.318528,157.3035 C214.318528,98.6536214 246.173759,47.4439302 293.526142,20.0325059 Z" id="Combined-Shape-Copy-3" fill="#32C5FF" transform="translate(293.509009, 157.291154) rotate(23.000000) translate(-293.509009, -157.291154) "></path>
                        <path d="M347.160969,30.9504107 C380.016741,74.6815226 389.319081,134.249335 366.409002,188.222101 C343.492106,242.210923 294.158134,276.903239 239.857964,283.632332 C207.001223,239.900911 197.698883,180.333099 220.608963,126.360333 C243.525297,72.3728347 292.857412,37.6808959 347.156007,30.9505969 Z" id="Combined-Shape-Copy-4" fill="#32C5FF"></path>
                        <path d="M425.7187,93.823726 C458.574473,137.554838 467.876813,197.12265 444.966733,251.095416 C422.049838,305.084238 372.715865,339.776554 318.415695,346.505647 C285.558955,302.774226 276.256615,243.206414 299.166694,189.233648 C322.083028,135.24615 371.415143,100.554211 425.713738,93.8239121 Z" id="Combined-Shape-Copy-4" fill="#32C5FF" transform="translate(372.066740, 220.164470) rotate(51.000000) translate(-372.066740, -220.164470) "></path>
                        <path d="M425.542307,194.443504 C458.39808,238.174616 467.70042,297.742429 444.79034,351.715194 C421.873445,405.704016 372.539472,440.396333 318.239302,447.125426 C285.382562,403.394005 276.080222,343.826192 298.990301,289.853427 C321.906635,235.865928 371.23875,201.17399 425.537345,194.443691 Z" id="Combined-Shape-Copy-4" fill="#32C5FF" transform="translate(371.890347, 320.784248) rotate(103.000000) translate(-371.890347, -320.784248) "></path>
                        <path d="M346.764618,257.041 C379.62039,300.772112 388.92273,360.339925 366.01265,414.31269 C343.095755,468.301512 293.761783,502.993829 239.461612,509.722922 C206.604872,465.991501 197.302532,406.423689 220.212612,352.450923 C243.128945,298.463424 292.46106,263.771486 346.759656,257.041187 Z" id="Combined-Shape-Copy-4" fill="#32C5FF" transform="translate(293.112658, 383.381744) rotate(154.000000) translate(-293.112658, -383.381744) "></path>
                        <path d="M248.706838,234.479023 C281.562611,278.210135 290.864951,337.777947 267.954871,391.750713 C245.037976,445.739535 195.704003,480.431851 141.403833,487.160944 C108.547093,443.429523 99.2447525,383.861711 122.154832,329.888945 C145.071166,275.901447 194.403281,241.209508 248.701876,234.479209 Z" id="Combined-Shape-Copy-4" fill="#32C5FF" transform="translate(195.054878, 360.819767) rotate(206.000000) translate(-195.054878, -360.819767) "></path>
                        <path d="M205.208477,143.747201 C238.06425,187.478313 247.36659,247.046125 224.45651,301.018891 C201.539615,355.007713 152.205642,389.700029 97.905472,396.429122 C65.0487315,352.697702 55.7463914,293.129889 78.6564713,239.157123 C101.572805,185.169625 150.90492,150.477686 205.203515,143.747387 Z" id="Combined-Shape-Copy-4" fill="#32C5FF" transform="translate(151.556517, 270.087945) rotate(257.000000) translate(-151.556517, -270.087945) "></path>
                        <path d="M249.024688,53.1684474 C281.88046,96.8995593 291.1828,156.467372 268.27272,210.440137 C245.355825,264.428959 196.021852,299.121276 141.721682,305.850369 C108.864942,262.118948 99.5626017,202.551135 122.472682,148.57837 C145.389015,94.5908714 194.72113,59.8989325 249.019725,53.1686335 Z" id="Combined-Shape-Copy-4" fill="#32C5FF" transform="translate(195.372727, 179.509191) rotate(309.000000) translate(-195.372727, -179.509191) "></path>
                        <path d="M304.041963,190.291217 C314.931849,193.62455 323.776657,195.291217 330.576389,195.291217 C337.376121,195.291217 344.864645,193.62455 353.041963,190.291217" id="Path-3" stroke="#000000" stroke-width="10" transform="translate(328.541963, 192.791217) rotate(14.000000) translate(-328.541963, -192.791217) "></path>
                        <path d="M156.041963,194.291217 C166.931849,197.62455 175.776657,199.291217 182.576389,199.291217 C189.376121,199.291217 196.864645,197.62455 205.041963,194.291217" id="Path-3-Copy" stroke="#000000" stroke-width="10" transform="translate(180.541963, 196.791217) rotate(-16.000000) translate(-180.541963, -196.791217) "></path>
                    </g>
                    <g id="Flower1">
                        <path d="M293.529052,20.0294774 C340.860931,47.4461802 372.69949,98.6444153 372.69949,157.278944 C372.69949,215.930056 340.84292,267.140666 293.48889,294.551667 C246.157087,267.136264 214.318528,215.938029 214.318528,157.3035 C214.318528,98.6536214 246.173759,47.4439302 293.526142,20.0325059 Z" id="Combined-Shape-Copy-3" fill="#44D7B6" transform="translate(293.509009, 157.291154) rotate(23.000000) translate(-293.509009, -157.291154) "></path>
                        <path d="M347.160969,30.9504107 C380.016741,74.6815226 389.319081,134.249335 366.409002,188.222101 C343.492106,242.210923 294.158134,276.903239 239.857964,283.632332 C207.001223,239.900911 197.698883,180.333099 220.608963,126.360333 C243.525297,72.3728347 292.857412,37.6808959 347.156007,30.9505969 Z" id="Combined-Shape-Copy-4" fill="#44D7B6"></path>
                        <path d="M425.7187,93.823726 C458.574473,137.554838 467.876813,197.12265 444.966733,251.095416 C422.049838,305.084238 372.715865,339.776554 318.415695,346.505647 C285.558955,302.774226 276.256615,243.206414 299.166694,189.233648 C322.083028,135.24615 371.415143,100.554211 425.713738,93.8239121 Z" id="Combined-Shape-Copy-4" fill="#44D7B6" transform="translate(372.066740, 220.164470) rotate(51.000000) translate(-372.066740, -220.164470) "></path>
                        <path d="M425.542307,194.443504 C458.39808,238.174616 467.70042,297.742429 444.79034,351.715194 C421.873445,405.704016 372.539472,440.396333 318.239302,447.125426 C285.382562,403.394005 276.080222,343.826192 298.990301,289.853427 C321.906635,235.865928 371.23875,201.17399 425.537345,194.443691 Z" id="Combined-Shape-Copy-4" fill="#44D7B6" transform="translate(371.890347, 320.784248) rotate(103.000000) translate(-371.890347, -320.784248) "></path>
                        <path d="M346.764618,257.041 C379.62039,300.772112 388.92273,360.339925 366.01265,414.31269 C343.095755,468.301512 293.761783,502.993829 239.461612,509.722922 C206.604872,465.991501 197.302532,406.423689 220.212612,352.450923 C243.128945,298.463424 292.46106,263.771486 346.759656,257.041187 Z" id="Combined-Shape-Copy-4" fill="#44D7B6" transform="translate(293.112658, 383.381744) rotate(154.000000) translate(-293.112658, -383.381744) "></path>
                        <path d="M248.706838,234.479023 C281.562611,278.210135 290.864951,337.777947 267.954871,391.750713 C245.037976,445.739535 195.704003,480.431851 141.403833,487.160944 C108.547093,443.429523 99.2447525,383.861711 122.154832,329.888945 C145.071166,275.901447 194.403281,241.209508 248.701876,234.479209 Z" id="Combined-Shape-Copy-4" fill="#44D7B6" transform="translate(195.054878, 360.819767) rotate(206.000000) translate(-195.054878, -360.819767) "></path>
                        <path d="M205.208477,143.747201 C238.06425,187.478313 247.36659,247.046125 224.45651,301.018891 C201.539615,355.007713 152.205642,389.700029 97.905472,396.429122 C65.0487315,352.697702 55.7463914,293.129889 78.6564713,239.157123 C101.572805,185.169625 150.90492,150.477686 205.203515,143.747387 Z" id="Combined-Shape-Copy-4" fill="#44D7B6" transform="translate(151.556517, 270.087945) rotate(257.000000) translate(-151.556517, -270.087945) "></path>
                        <path d="M249.023763,53.1675863 C281.88012,96.8987864 291.182764,156.467075 268.272516,210.440236 C245.355621,264.429058 196.021648,299.121375 141.721477,305.850467 C108.864738,262.119046 99.562398,202.551234 122.472478,148.578468 C145.388811,94.5909696 194.720927,59.8990308 249.019522,53.1687318 Z" id="Combined-Shape-Copy-4" fill="#44D7B6" transform="translate(195.372523, 179.509027) rotate(309.000000) translate(-195.372523, -179.509027) "></path>
                        <path d="M158.232184,177.384577 C169.12207,180.71791 177.966879,182.384577 184.76661,182.384577 C191.566342,182.384577 199.054866,180.71791 207.232184,177.384577" id="Path-3-Copy-3" stroke="#000000" stroke-width="10" transform="translate(182.732184, 179.884577) rotate(163.000000) translate(-182.732184, -179.884577) "></path>
                        <path d="M292.139833,177.80223 C303.029719,181.135563 311.874528,182.80223 318.67426,182.80223 C325.473991,182.80223 332.962516,181.135563 341.139833,177.80223" id="Path-3-Copy-2" stroke="#000000" stroke-width="10" transform="translate(316.639833, 180.302230) rotate(190.000000) translate(-316.639833, -180.302230) "></path>
                    </g>
                    <g id="x-symbol" transform="translate(286.000000, 226.000000)" fill="#000000" fill-rule="nonzero">
                        <path d="M27.8413449,22.5009278 L44.5549561,5.78731185 C45.148348,5.19378398 45.148348,4.23331778 44.5549561,3.63998524 L41.3607381,0.444388979 C41.0762498,0.1600777 40.6901935,0 40.2872418,0 C39.8841923,0 39.498136,0.1600777 39.2136478,0.444388979 L22.5000366,17.1592747 L5.78642547,0.444388979 C5.50193723,0.1600777 5.11588092,0 4.71283149,0 C4.30987972,0 3.92372575,0.1600777 3.63933516,0.444388979 L0.445117164,3.63998524 C-0.148372388,4.23331778 -0.148372388,5.19378398 0.445117164,5.78731185 L17.1587283,22.5010255 L0.446777411,39.2126881 C-0.146419156,39.806216 -0.146419156,40.7666822 0.446777411,41.3600148 L3.64119073,44.555611 C3.92548366,44.8399223 4.31163763,45 4.71468706,45 C5.11773649,45 5.5037928,44.8399223 5.7883787,44.555611 L22.499939,27.8426787 L39.2115969,44.555611 C39.4960851,44.8399223 39.8821414,45 40.2851909,45 C40.688338,45 41.0743943,44.8399223 41.3586872,44.555611 L44.5531005,41.3600148 C45.1462971,40.7666822 45.1462971,39.806216 44.5531005,39.2126881 L27.8413449,22.5009278 Z" id="Path"></path>
                    </g>
                    <g id="x-symbol-copy" transform="translate(166.000000, 226.000000)" fill="#000000" fill-rule="nonzero">
                        <path d="M27.8413449,22.5009278 L44.5549561,5.78731185 C45.148348,5.19378398 45.148348,4.23331778 44.5549561,3.63998524 L41.3607381,0.444388979 C41.0762498,0.1600777 40.6901935,0 40.2872418,0 C39.8841923,0 39.498136,0.1600777 39.2136478,0.444388979 L22.5000366,17.1592747 L5.78642547,0.444388979 C5.50193723,0.1600777 5.11588092,0 4.71283149,0 C4.30987972,0 3.92372575,0.1600777 3.63933516,0.444388979 L0.445117164,3.63998524 C-0.148372388,4.23331778 -0.148372388,5.19378398 0.445117164,5.78731185 L17.1587283,22.5010255 L0.446777411,39.2126881 C-0.146419156,39.806216 -0.146419156,40.7666822 0.446777411,41.3600148 L3.64119073,44.555611 C3.92548366,44.8399223 4.31163763,45 4.71468706,45 C5.11773649,45 5.5037928,44.8399223 5.7883787,44.555611 L22.499939,27.8426787 L39.2115969,44.555611 C39.4960851,44.8399223 39.8821414,45 40.2851909,45 C40.688338,45 41.0743943,44.8399223 41.3586872,44.555611 L44.5531005,41.3600148 C45.1462971,40.7666822 45.1462971,39.806216 44.5531005,39.2126881 L27.8413449,22.5009278 Z" id="Path"></path>
                    </g>
                    <g id="x-symbol-copy-3" transform="translate(776.000000, 236.000000)" fill="#000000" fill-rule="nonzero">
                        <path d="M27.8413449,22.5009278 L44.5549561,5.78731185 C45.148348,5.19378398 45.148348,4.23331778 44.5549561,3.63998524 L41.3607381,0.444388979 C41.0762498,0.1600777 40.6901935,0 40.2872418,0 C39.8841923,0 39.498136,0.1600777 39.2136478,0.444388979 L22.5000366,17.1592747 L5.78642547,0.444388979 C5.50193723,0.1600777 5.11588092,0 4.71283149,0 C4.30987972,0 3.92372575,0.1600777 3.63933516,0.444388979 L0.445117164,3.63998524 C-0.148372388,4.23331778 -0.148372388,5.19378398 0.445117164,5.78731185 L17.1587283,22.5010255 L0.446777411,39.2126881 C-0.146419156,39.806216 -0.146419156,40.7666822 0.446777411,41.3600148 L3.64119073,44.555611 C3.92548366,44.8399223 4.31163763,45 4.71468706,45 C5.11773649,45 5.5037928,44.8399223 5.7883787,44.555611 L22.499939,27.8426787 L39.2115969,44.555611 C39.4960851,44.8399223 39.8821414,45 40.2851909,45 C40.688338,45 41.0743943,44.8399223 41.3586872,44.555611 L44.5531005,41.3600148 C45.1462971,40.7666822 45.1462971,39.806216 44.5531005,39.2126881 L27.8413449,22.5009278 Z" id="Path"></path>
                    </g>
                    <g id="x-symbol-copy-2" transform="translate(656.000000, 236.000000)" fill="#000000" fill-rule="nonzero">
                        <path d="M27.8413449,22.5009278 L44.5549561,5.78731185 C45.148348,5.19378398 45.148348,4.23331778 44.5549561,3.63998524 L41.3607381,0.444388979 C41.0762498,0.1600777 40.6901935,0 40.2872418,0 C39.8841923,0 39.498136,0.1600777 39.2136478,0.444388979 L22.5000366,17.1592747 L5.78642547,0.444388979 C5.50193723,0.1600777 5.11588092,0 4.71283149,0 C4.30987972,0 3.92372575,0.1600777 3.63933516,0.444388979 L0.445117164,3.63998524 C-0.148372388,4.23331778 -0.148372388,5.19378398 0.445117164,5.78731185 L17.1587283,22.5010255 L0.446777411,39.2126881 C-0.146419156,39.806216 -0.146419156,40.7666822 0.446777411,41.3600148 L3.64119073,44.555611 C3.92548366,44.8399223 4.31163763,45 4.71468706,45 C5.11773649,45 5.5037928,44.8399223 5.7883787,44.555611 L22.499939,27.8426787 L39.2115969,44.555611 C39.4960851,44.8399223 39.8821414,45 40.2851909,45 C40.688338,45 41.0743943,44.8399223 41.3586872,44.555611 L44.5531005,41.3600148 C45.1462971,40.7666822 45.1462971,39.806216 44.5531005,39.2126881 L27.8413449,22.5009278 Z" id="Path"></path>
                    </g>
                </g>
                <rect id="Rectangle" fill="#E02020" x="704" y="315" width="74" height="37"></rect>
            </g>
            <rect id="Rectangle-Copy" fill="#B620E0" x="209" y="315" width="74" height="37"></rect>
        </g>
    </g>
</svg>