<?xml version="1.0" encoding="UTF-8"?>
<svg width="1012px" height="547px" viewBox="0 0 1012 547" version="1.1" xmlns="http://www.w3.org/2000/svg" xmlns:xlink="http://www.w3.org/1999/xlink">
    <title>Group</title>
    <g id="Twins" stroke="none" stroke-width="1" fill="none" fill-rule="evenodd">
        <g id="Group" transform="translate(0.000000, -0.000000)">
            <g id="Flower2" transform="translate(483.000000, 5.000000)">
                <path d="M293.529052,20.0294774 C340.860931,47.4461802 372.69949,98.6444153 372.69949,157.278944 C372.69949,215.930056 340.84292,267.140666 293.48889,294.551667 C246.157087,267.136264 214.318528,215.938029 214.318528,157.3035 C214.318528,98.6536214 246.173759,47.4439302 293.526142,20.0325059 Z" id="Combined-Shape-Copy-3" fill="#32C5FF" transform="translate(293.509009, 157.291154) rotate(23.000000) translate(-293.509009, -157.291154) "></path>
                <path d="M347.160969,30.9504107 C380.016741,74.6815226 389.319081,134.249335 366.409002,188.222101 C343.492106,242.210923 294.158134,276.903239 239.857964,283.632332 C207.001223,239.900911 197.698883,180.333099 220.608963,126.360333 C243.525297,72.3728347 292.857412,37.6808959 347.156007,30.9505969 Z" id="Combined-Shape-Copy-4" fill="#32C5FF"></path>
                <path d="M425.7187,93.823726 C458.574473,137.554838 467.876813,197.12265 444.966733,251.095416 C422.049838,305.084238 372.715865,339.776554 318.415695,346.505647 C285.558955,302.774226 276.256615,243.206414 299.166694,189.233648 C322.083028,135.24615 371.415143,100.554211 425.713738,93.8239121 Z" id="Combined-Shape-Copy-4" fill="#32C5FF" transform="translate(372.066740, 220.164470) rotate(51.000000) translate(-372.066740, -220.164470) "></path>
                <path d="M425.542307,194.443504 C458.39808,238.174616 467.70042,297.742429 444.79034,351.715194 C421.873445,405.704016 372.539472,440.396333 318.239302,447.125426 C285.382562,403.394005 276.080222,343.826192 298.990301,289.853427 C321.906635,235.865928 371.23875,201.17399 425.537345,194.443691 Z" id="Combined-Shape-Copy-4" fill="#32C5FF" transform="translate(371.890347, 320.784248) rotate(103.000000) translate(-371.890347, -320.784248) "></path>
                <path d="M346.764618,257.041 C379.62039,300.772112 388.92273,360.339925 366.01265,414.31269 C343.095755,468.301512 293.761783,502.993829 239.461612,509.722922 C206.604872,465.991501 197.302532,406.423689 220.212612,352.450923 C243.128945,298.463424 292.46106,263.771486 346.759656,257.041187 Z" id="Combined-Shape-Copy-4" fill="#32C5FF" transform="translate(293.112658, 383.381744) rotate(154.000000) translate(-293.112658, -383.381744) "></path>
                <path d="M248.706838,234.479023 C281.562611,278.210135 290.864951,337.777947 267.954871,391.750713 C245.037976,445.739535 195.704003,480.431851 141.403833,487.160944 C108.547093,443.429523 99.2447525,383.861711 122.154832,329.888945 C145.071166,275.901447 194.403281,241.209508 248.701876,234.479209 Z" id="Combined-Shape-Copy-4" fill="#32C5FF" transform="translate(195.054878, 360.819767) rotate(206.000000) translate(-195.054878, -360.819767) "></path>
                <path d="M205.208477,143.747201 C238.06425,187.478313 247.36659,247.046125 224.45651,301.018891 C201.539615,355.007713 152.205642,389.700029 97.905472,396.429122 C65.0487315,352.697702 55.7463914,293.129889 78.6564713,239.157123 C101.572805,185.169625 150.90492,150.477686 205.203515,143.747387 Z" id="Combined-Shape-Copy-4" fill="#32C5FF" transform="translate(151.556517, 270.087945) rotate(257.000000) translate(-151.556517, -270.087945) "></path>
                <path d="M249.024688,53.1684474 C281.88046,96.8995593 291.1828,156.467372 268.27272,210.440137 C245.355825,264.428959 196.021852,299.121276 141.721682,305.850369 C108.864942,262.118948 99.5626017,202.551135 122.472682,148.57837 C145.389015,94.5908714 194.72113,59.8989325 249.019725,53.1686335 Z" id="Combined-Shape-Copy-4" fill="#32C5FF" transform="translate(195.372727, 179.509191) rotate(309.000000) translate(-195.372727, -179.509191) "></path>
                <ellipse id="Eye-Copy-6" fill-opacity="0.85" fill="#000000" cx="190.658982" cy="263.791217" rx="41.65" ry="45"></ellipse>
                <ellipse id="Eye-Copy-5" fill-opacity="0.85" fill="#000000" cx="318.658982" cy="262.791217" rx="41.65" ry="45"></ellipse>
                <path d="M302.764801,232.334799 C303.283735,232.350496 303.394936,232.452685 303.451301,232.585777 L305.3312,237.024702 C305.52404,237.480044 305.928906,237.811091 306.413479,237.909647 L311.252248,238.893793 C311.387549,238.921311 311.498887,239.001066 311.56952,239.107767 C311.640154,239.214467 311.670082,239.348114 311.642563,239.483415 C311.62359,239.5767 311.578951,239.660549 311.516041,239.727137 C311.453131,239.793724 311.37195,239.843049 311.279892,239.867285 L306.591515,241.101594 C306.099117,241.231228 305.706102,241.601799 305.54777,242.085733 L304.081573,246.567122 C304.038639,246.698349 303.946579,246.799749 303.832447,246.85761 C303.718315,246.915471 303.582109,246.929791 303.450883,246.886857 C303.313513,246.841913 303.202312,246.739723 303.145947,246.606631 L301.266047,242.167707 C301.073208,241.712365 300.668341,241.381317 300.183769,241.282761 L295.345,240.298616 C295.209698,240.271098 295.09836,240.191343 295.027727,240.084642 C294.957094,239.977941 294.927166,239.844295 294.954684,239.708994 C294.973657,239.615709 295.018296,239.53186 295.081206,239.465272 C295.144117,239.398685 295.225298,239.34936 295.317356,239.325124 L300.005732,238.090815 C300.498131,237.961181 300.891146,237.59061 301.049477,237.106676 L302.515675,232.625287 C302.558609,232.49406 302.650668,232.39266 302.764801,232.334799 Z" id="Star-Copy-6" stroke="#979797" fill="#FFFFFF"></path>
                <path d="M168.431874,234.667929 C168.950808,234.683626 169.062009,234.785816 169.118374,234.918908 L170.998274,239.357832 C171.191113,239.813175 171.59598,240.144222 172.080552,240.242778 L176.919321,241.226923 C177.054622,241.254441 177.165961,241.334196 177.236594,241.440897 C177.307227,241.547598 177.337155,241.681244 177.309636,241.816545 C177.290663,241.90983 177.246025,241.993679 177.183115,242.060267 C177.120204,242.126854 177.039023,242.176179 176.946965,242.200415 L172.258589,243.434724 C171.76619,243.564358 171.373175,243.934929 171.214844,244.418864 L169.748646,248.900253 C169.705712,249.031479 169.613653,249.13288 169.49952,249.19074 C169.385388,249.248601 169.249182,249.262921 169.117956,249.219987 C168.980586,249.175043 168.869385,249.072854 168.81302,248.939762 L166.933121,244.500838 C166.740281,244.045495 166.335414,243.714448 165.850842,243.615892 L161.012073,242.631746 C160.876772,242.604228 160.765434,242.524473 160.6948,242.417772 C160.624167,242.311072 160.594239,242.177425 160.621758,242.042124 C160.640731,241.94884 160.68537,241.86499 160.74828,241.798403 C160.81119,241.731815 160.892371,241.68249 160.984429,241.658254 L165.672806,240.423945 C166.165204,240.294311 166.558219,239.92374 166.71655,239.439806 L168.182748,234.958417 C168.225682,234.827191 168.317742,234.72579 168.431874,234.667929 Z" id="Star-Copy-5" stroke="#979797" fill="#FFFFFF"></path>
                <circle id="Oval-Copy-5" stroke="#979797" fill="#FFFFFF" cx="337.090578" cy="246.972565" r="7.36359077"></circle>
                <path d="M183.086804,262.291217 C187.36701,262.291217 191.24201,264.026113 194.046959,266.831062 C196.851907,269.63601 198.586804,273.51101 198.586804,277.791217 C198.586804,282.071424 196.851907,285.946424 194.046959,288.751372 C191.24201,291.55632 187.36701,293.291217 183.086804,293.291217 C178.806597,293.291217 174.931597,291.55632 172.126649,288.751372 C169.3217,285.946424 167.586804,282.071424 167.586804,277.791217 C167.586804,273.51101 169.3217,269.63601 172.126649,266.831062 C174.931597,264.026113 178.806597,262.291217 183.086804,262.291217 Z M307.086804,259.291217 C311.36701,259.291217 315.24201,261.026113 318.046959,263.831062 C320.851907,266.63601 322.586804,270.51101 322.586804,274.791217 C322.586804,279.071424 320.851907,282.946424 318.046959,285.751372 C315.24201,288.55632 311.36701,290.291217 307.086804,290.291217 C302.806597,290.291217 298.931597,288.55632 296.126649,285.751372 C293.3217,282.946424 291.586804,279.071424 291.586804,274.791217 C291.586804,270.51101 293.3217,266.63601 296.126649,263.831062 C298.931597,261.026113 302.806597,259.291217 307.086804,259.291217 Z M203.170819,241.881792 C205.204218,241.881792 207.045116,242.70599 208.377664,244.038538 C209.710212,245.371086 210.53441,247.211984 210.53441,249.245383 C210.53441,251.278783 209.710212,253.11968 208.377664,254.452228 C207.045116,255.784776 205.204218,256.608974 203.170819,256.608974 C201.137419,256.608974 199.296522,255.784776 197.963974,254.452228 C196.631426,253.11968 195.807228,251.278783 195.807228,249.245383 C195.807228,247.211984 196.631426,245.371086 197.963974,244.038538 C199.296522,242.70599 201.137419,241.881792 203.170819,241.881792 Z" id="Oval-Copy-7" stroke="#979797" fill="#FFFFFF"></path>
                <path d="M304.041963,190.291217 C314.931849,193.62455 323.776657,195.291217 330.576389,195.291217 C337.376121,195.291217 344.864645,193.62455 353.041963,190.291217" id="Path-3" stroke="#000000" stroke-width="10" transform="translate(328.541963, 192.791217) rotate(14.000000) translate(-328.541963, -192.791217) "></path>
                <path d="M156.041963,194.291217 C166.931849,197.62455 175.776657,199.291217 182.576389,199.291217 C189.376121,199.291217 196.864645,197.62455 205.041963,194.291217" id="Path-3-Copy" stroke="#000000" stroke-width="10" transform="translate(180.541963, 196.791217) rotate(-16.000000) translate(-180.541963, -196.791217) "></path>
                <path d="M246.188591,357.92679 C248.737878,357.077028 251.611338,357.199786 254.204725,358.496479 C256.236763,359.512498 257.884449,361.160184 258.900468,363.192222 L271.602094,388.595474 C272.898788,391.188861 273.021545,394.062322 272.171783,396.611608 C271.322021,399.160895 269.499738,401.386009 266.906351,402.682702 C265.448369,403.411693 263.840682,403.791217 262.210608,403.791217 L236.807356,403.791217 C233.907861,403.791217 231.282861,402.615964 229.382735,400.715838 C227.482609,398.815712 226.307356,396.190712 226.307356,393.291217 C226.307356,391.661143 226.68688,390.053456 227.415871,388.595474 L240.117497,363.192222 C241.41419,360.598835 243.639304,358.776552 246.188591,357.92679 Z" id="Triangle" stroke="#979797" fill="#E02020" transform="translate(249.508982, 373.791217) rotate(187.000000) translate(-249.508982, -373.791217) "></path>
            </g>
            <g id="Flower1">
                <path d="M293.529052,20.0294774 C340.860931,47.4461802 372.69949,98.6444153 372.69949,157.278944 C372.69949,215.930056 340.84292,267.140666 293.48889,294.551667 C246.157087,267.136264 214.318528,215.938029 214.318528,157.3035 C214.318528,98.6536214 246.173759,47.4439302 293.526142,20.0325059 Z" id="Combined-Shape-Copy-3" fill="#44D7B6" transform="translate(293.509009, 157.291154) rotate(23.000000) translate(-293.509009, -157.291154) "></path>
                <path d="M347.160969,30.9504107 C380.016741,74.6815226 389.319081,134.249335 366.409002,188.222101 C343.492106,242.210923 294.158134,276.903239 239.857964,283.632332 C207.001223,239.900911 197.698883,180.333099 220.608963,126.360333 C243.525297,72.3728347 292.857412,37.6808959 347.156007,30.9505969 Z" id="Combined-Shape-Copy-4" fill="#44D7B6"></path>
                <path d="M425.7187,93.823726 C458.574473,137.554838 467.876813,197.12265 444.966733,251.095416 C422.049838,305.084238 372.715865,339.776554 318.415695,346.505647 C285.558955,302.774226 276.256615,243.206414 299.166694,189.233648 C322.083028,135.24615 371.415143,100.554211 425.713738,93.8239121 Z" id="Combined-Shape-Copy-4" fill="#44D7B6" transform="translate(372.066740, 220.164470) rotate(51.000000) translate(-372.066740, -220.164470) "></path>
                <path d="M425.542307,194.443504 C458.39808,238.174616 467.70042,297.742429 444.79034,351.715194 C421.873445,405.704016 372.539472,440.396333 318.239302,447.125426 C285.382562,403.394005 276.080222,343.826192 298.990301,289.853427 C321.906635,235.865928 371.23875,201.17399 425.537345,194.443691 Z" id="Combined-Shape-Copy-4" fill="#44D7B6" transform="translate(371.890347, 320.784248) rotate(103.000000) translate(-371.890347, -320.784248) "></path>
                <path d="M346.764618,257.041 C379.62039,300.772112 388.92273,360.339925 366.01265,414.31269 C343.095755,468.301512 293.761783,502.993829 239.461612,509.722922 C206.604872,465.991501 197.302532,406.423689 220.212612,352.450923 C243.128945,298.463424 292.46106,263.771486 346.759656,257.041187 Z" id="Combined-Shape-Copy-4" fill="#44D7B6" transform="translate(293.112658, 383.381744) rotate(154.000000) translate(-293.112658, -383.381744) "></path>
                <path d="M248.706838,234.479023 C281.562611,278.210135 290.864951,337.777947 267.954871,391.750713 C245.037976,445.739535 195.704003,480.431851 141.403833,487.160944 C108.547093,443.429523 99.2447525,383.861711 122.154832,329.888945 C145.071166,275.901447 194.403281,241.209508 248.701876,234.479209 Z" id="Combined-Shape-Copy-4" fill="#44D7B6" transform="translate(195.054878, 360.819767) rotate(206.000000) translate(-195.054878, -360.819767) "></path>
                <path d="M205.208477,143.747201 C238.06425,187.478313 247.36659,247.046125 224.45651,301.018891 C201.539615,355.007713 152.205642,389.700029 97.905472,396.429122 C65.0487315,352.697702 55.7463914,293.129889 78.6564713,239.157123 C101.572805,185.169625 150.90492,150.477686 205.203515,143.747387 Z" id="Combined-Shape-Copy-4" fill="#44D7B6" transform="translate(151.556517, 270.087945) rotate(257.000000) translate(-151.556517, -270.087945) "></path>
                <path d="M249.024688,53.1684474 C281.88046,96.8995593 291.1828,156.467372 268.27272,210.440137 C245.355825,264.428959 196.021852,299.121276 141.721682,305.850369 C108.864942,262.118948 99.5626017,202.551135 122.472682,148.57837 C145.389015,94.5908714 194.72113,59.8989325 249.019725,53.1686335 Z" id="Combined-Shape-Copy-4" fill="#44D7B6" transform="translate(195.372727, 179.509191) rotate(309.000000) translate(-195.372727, -179.509191) "></path>
                <ellipse id="Eye-Copy-4" fill-opacity="0.85" fill="#000000" cx="192.658982" cy="263.791217" rx="41.65" ry="45"></ellipse>
                <ellipse id="Eye-Copy-3" fill-opacity="0.85" fill="#000000" cx="320.658982" cy="262.791217" rx="41.65" ry="45"></ellipse>
                <path d="M304.764801,232.334799 C305.283735,232.350496 305.394936,232.452685 305.451301,232.585777 L307.3312,237.024702 C307.52404,237.480044 307.928906,237.811091 308.413479,237.909647 L313.252248,238.893793 C313.387549,238.921311 313.498887,239.001066 313.56952,239.107767 C313.640154,239.214467 313.670082,239.348114 313.642563,239.483415 C313.62359,239.5767 313.578951,239.660549 313.516041,239.727137 C313.453131,239.793724 313.37195,239.843049 313.279892,239.867285 L308.591515,241.101594 C308.099117,241.231228 307.706102,241.601799 307.54777,242.085733 L306.081573,246.567122 C306.038639,246.698349 305.946579,246.799749 305.832447,246.85761 C305.718315,246.915471 305.582109,246.929791 305.450883,246.886857 C305.313513,246.841913 305.202312,246.739723 305.145947,246.606631 L303.266047,242.167707 C303.073208,241.712365 302.668341,241.381317 302.183769,241.282761 L297.345,240.298616 C297.209698,240.271098 297.09836,240.191343 297.027727,240.084642 C296.957094,239.977941 296.927166,239.844295 296.954684,239.708994 C296.973657,239.615709 297.018296,239.53186 297.081206,239.465272 C297.144117,239.398685 297.225298,239.34936 297.317356,239.325124 L302.005732,238.090815 C302.498131,237.961181 302.891146,237.59061 303.049477,237.106676 L304.515675,232.625287 C304.558609,232.49406 304.650668,232.39266 304.764801,232.334799 Z" id="Star-Copy-4" stroke="#979797" fill="#FFFFFF"></path>
                <path d="M170.431874,234.667929 C170.950808,234.683626 171.062009,234.785816 171.118374,234.918908 L172.998274,239.357832 C173.191113,239.813175 173.59598,240.144222 174.080552,240.242778 L178.919321,241.226923 C179.054622,241.254441 179.165961,241.334196 179.236594,241.440897 C179.307227,241.547598 179.337155,241.681244 179.309636,241.816545 C179.290663,241.90983 179.246025,241.993679 179.183115,242.060267 C179.120204,242.126854 179.039023,242.176179 178.946965,242.200415 L174.258589,243.434724 C173.76619,243.564358 173.373175,243.934929 173.214844,244.418864 L171.748646,248.900253 C171.705712,249.031479 171.613653,249.13288 171.49952,249.19074 C171.385388,249.248601 171.249182,249.262921 171.117956,249.219987 C170.980586,249.175043 170.869385,249.072854 170.81302,248.939762 L168.933121,244.500838 C168.740281,244.045495 168.335414,243.714448 167.850842,243.615892 L163.012073,242.631746 C162.876772,242.604228 162.765434,242.524473 162.6948,242.417772 C162.624167,242.311072 162.594239,242.177425 162.621758,242.042124 C162.640731,241.94884 162.68537,241.86499 162.74828,241.798403 C162.81119,241.731815 162.892371,241.68249 162.984429,241.658254 L167.672806,240.423945 C168.165204,240.294311 168.558219,239.92374 168.71655,239.439806 L170.182748,234.958417 C170.225682,234.827191 170.317742,234.72579 170.431874,234.667929 Z" id="Star-Copy-3" stroke="#979797" fill="#FFFFFF"></path>
                <circle id="Oval-Copy-3" stroke="#979797" fill="#FFFFFF" cx="339.090578" cy="246.972565" r="7.36359077"></circle>
                <circle id="Oval-Copy-2" stroke="#979797" fill="#FFFFFF" cx="205.170819" cy="249.245383" r="7.36359077"></circle>
                <circle id="Oval" stroke="#979797" fill="#FFFFFF" cx="183.086804" cy="279.791217" r="15.5"></circle>
                <circle id="Oval-Copy-9" stroke="#979797" fill="#FFFFFF" cx="313.086804" cy="279.791217" r="15.5"></circle>
                <path d="M158.232184,177.384577 C169.12207,180.71791 177.966879,182.384577 184.76661,182.384577 C191.566342,182.384577 199.054866,180.71791 207.232184,177.384577" id="Path-3-Copy-3" stroke="#000000" stroke-width="10" transform="translate(182.732184, 179.884577) rotate(163.000000) translate(-182.732184, -179.884577) "></path>
                <path d="M292.139833,177.80223 C303.029719,181.135563 311.874528,182.80223 318.67426,182.80223 C325.473991,182.80223 332.962516,181.135563 341.139833,177.80223" id="Path-3-Copy-2" stroke="#000000" stroke-width="10" transform="translate(316.639833, 180.302230) rotate(190.000000) translate(-316.639833, -180.302230) "></path>
                <path d="M238.188591,357.92679 C240.737878,357.077028 243.611338,357.199786 246.204725,358.496479 C248.236763,359.512498 249.884449,361.160184 250.900468,363.192222 L263.602094,388.595474 C264.898788,391.188861 265.021545,394.062322 264.171783,396.611608 C263.322021,399.160895 261.499738,401.386009 258.906351,402.682702 C257.448369,403.411693 255.840682,403.791217 254.210608,403.791217 L228.807356,403.791217 C225.907861,403.791217 223.282861,402.615964 221.382735,400.715838 C219.482609,398.815712 218.307356,396.190712 218.307356,393.291217 C218.307356,391.661143 218.68688,390.053456 219.415871,388.595474 L232.117497,363.192222 C233.41419,360.598835 235.639304,358.776552 238.188591,357.92679 Z" id="Triangle-Copy" stroke="#979797" fill="#B620E0" transform="translate(241.508982, 373.791217) rotate(187.000000) translate(-241.508982, -373.791217) "></path>
            </g>
        </g>
    </g>
</svg>